M48
; DRILL file {KiCad 5.1.5+dfsg1-2~bpo10+1} date Mon 20 Jan 2020 23:41:51 CET
; FORMAT={-:-/ absolute / inch / decimal}
; #@! TF.CreationDate,2020-01-20T23:41:51+01:00
; #@! TF.GenerationSoftware,Kicad,Pcbnew,5.1.5+dfsg1-2~bpo10+1
; #@! TF.FileFunction,Plated,1,4,PTH
FMAT,2
INCH
T1C0.0098
T2C0.0177
T3C0.0300
T4C0.0354
T5C0.0394
T6C0.0787
%
G90
G05
T1
X4.3552Y-2.9331
X4.3915Y-2.66
X4.4136Y-3.4629
X4.415Y-3.0288
X4.415Y-3.0788
X4.4154Y-3.128
X4.4154Y-3.178
X4.5705Y-3.5713
X4.5728Y-3.5419
X4.5841Y-3.3941
X4.5845Y-3.2345
X4.5846Y-3.4528
X4.585Y-3.4823
X4.5851Y-3.4232
X4.5851Y-2.6549
X4.595Y-2.4025
X4.6089Y-3.3479
X4.6156Y-3.2345
X4.6168Y-3.1286
X4.6293Y-3.4169
X4.6415Y-2.8823
X4.6449Y-3.4437
X4.645Y-3.4729
X4.6643Y-2.6061
X4.6693Y-2.6405
X4.675Y-2.7195
X4.6755Y-2.68
X4.6775Y-2.9224
X4.68Y-3.2832
X4.68Y-3.3467
X4.6972Y-3.373
X4.6976Y-3.4734
X4.6986Y-3.5027
X4.701Y-2.8786
X4.7014Y-2.4845
X4.7026Y-2.4546
X4.7134Y-3.0292
X4.7136Y-2.5192
X4.7136Y-2.5483
X4.7146Y-3.0784
X4.7155Y-2.9301
X4.7155Y-2.9679
X4.716Y-3.1788
X4.7225Y-3.3351
X4.7235Y-3.3979
X4.7379Y-3.6259
X4.7398Y-3.6843
X4.7413Y-3.7575
X4.753Y-3.27
X4.7536Y-3.3343
X4.763Y-2.8784
X4.7763Y-3.0039
X4.7787Y-3.7343
X4.7914Y-3.3335
X4.792Y-2.8074
X4.7934Y-3.2151
X4.7992Y-3.178
X4.8042Y-3.8212
X4.8046Y-3.9133
X4.8079Y-3.679
X4.8154Y-3.0646
X4.8164Y-2.4605
X4.8179Y-2.8847
X4.8181Y-3.371
X4.8186Y-2.7695
X4.8211Y-3.3331
X4.8276Y-2.3755
X4.8309Y-3.6992
X4.8345Y-2.909
X4.837Y-2.9892
X4.8376Y-2.8109
X4.8443Y-3.9137
X4.8459Y-3.8212
X4.853Y-3.7208
X4.8589Y-2.6729
X4.8593Y-2.4834
X4.8593Y-3.6402
X4.8616Y-2.3629
X4.8691Y-2.8113
X4.8904Y-2.8845
X4.893Y-3.3338
X4.8931Y-3.3629
X4.8939Y-3.809
X4.8951Y-3.7601
X4.8989Y-2.8036
X4.9038Y-2.8338
X4.9093Y-3.2649
X4.9154Y-3.6044
X4.9167Y-3.2368
X4.9207Y-2.4019
X4.9284Y-2.7294
X4.9293Y-2.4403
X4.9305Y-3.2874
X4.9404Y-3.3767
X4.9465Y-2.7554
X4.9487Y-2.9562
X4.9505Y-3.0482
X4.9583Y-2.4432
X4.9585Y-3.6479
X4.9695Y-3.3204
X4.9816Y-2.9562
X4.9825Y-2.4247
X4.9875Y-2.8135
X4.9904Y-3.0685
X5.0026Y-3.8137
X5.0165Y-3.0271
X5.018Y-2.7377
X5.0195Y-2.4117
X5.0195Y-3.0685
X5.0196Y-2.7911
X5.0242Y-2.3609
X5.0264Y-3.233
X5.0309Y-3.7841
X5.0433Y-3.0494
X5.0467Y-3.2889
X5.0475Y-2.9562
X5.0502Y-2.6932
X5.0577Y-3.3208
X5.0581Y-3.2323
X5.0721Y-3.1028
X5.0769Y-2.7934
X5.0813Y-2.4361
X5.0833Y-3.3535
X5.0839Y-3.4133
X5.0839Y-3.5129
X5.0839Y-3.5735
X5.0939Y-3.7617
X5.1085Y-2.4869
X5.1125Y-2.6977
X5.1175Y-3.3154
X5.1183Y-3.6658
X5.1195Y-3.8137
X5.1259Y-2.9502
X5.1304Y-3.0064
X5.1361Y-2.9775
X5.1396Y-3.0897
X5.14Y-3.1188
X5.1403Y-3.1479
X5.1404Y-3.0605
X5.1411Y-2.6686
X5.1413Y-2.4871
X5.1417Y-2.6978
X5.1439Y-3.8534
X5.1445Y-2.9277
X5.1447Y-2.7719
X5.1522Y-3.7064
X5.153Y-3.7389
X5.1687Y-2.8751
X5.1701Y-2.8053
X5.1892Y-3.3119
X5.2054Y-2.8745
X5.2061Y-2.8038
X5.2203Y-3.3109
X5.2203Y-3.8716
X5.2266Y-3.2668
X5.2281Y-3.1649
X5.2337Y-2.8675
X5.2353Y-3.1073
X5.2455Y-2.9469
X5.2475Y-2.4915
X5.2505Y-3.2214
X5.2511Y-3.3181
X5.2605Y-2.6674
X5.2634Y-3.4334
X5.2644Y-2.8916
X5.2646Y-3.5944
X5.265Y-3.4948
X5.2762Y-2.9424
X5.2766Y-2.492
X5.2887Y-2.8249
X5.2921Y-3.0351
X5.298Y-3.0009
X5.3079Y-2.495
X5.3145Y-3.1689
X5.3196Y-3.2276
X5.3223Y-2.6936
X5.3242Y-3.0334
X5.3325Y-2.5958
X5.338Y-3.2729
X5.3389Y-2.5483
X5.3395Y-2.729
X5.3463Y-2.8724
X5.3488Y-2.656
X5.3561Y-2.5015
X5.3565Y-3.0701
X5.3566Y-3.0409
X5.362Y-2.596
X5.3683Y-2.5483
X5.3683Y-2.7708
X5.3757Y-3.6678
X5.3783Y-2.656
X5.3785Y-2.8602
X5.3794Y-3.1939
X5.3853Y-2.5009
X5.3983Y-3.6897
X5.3991Y-3.6475
X5.4006Y-3.7865
X5.403Y-2.8765
X5.4077Y-3.2974
X5.4077Y-3.3369
X5.4189Y-2.6083
X5.4189Y-2.6379
X5.4189Y-2.4902
X5.4189Y-2.5198
X5.4189Y-2.5493
X5.4189Y-2.5788
X5.4189Y-2.6678
X5.4189Y-2.6973
X5.4277Y-3.7395
X5.429Y-3.8956
X5.4408Y-3.0719
X5.4865Y-3.0912
X5.4935Y-3.3554
X5.4979Y-2.9027
X5.5074Y-3.1956
X5.5484Y-3.1001
X5.5517Y-3.0481
X5.5518Y-3.1897
X5.5735Y-3.6417
X5.5782Y-3.7601
X5.5782Y-3.6021
X5.5786Y-3.7208
X5.5792Y-3.544
X5.5794Y-2.6832
X5.5798Y-2.5056
X5.5798Y-2.6237
X5.5802Y-2.565
X5.5802Y-3.485
X5.5802Y-2.7969
X5.5804Y-2.7414
X5.581Y-3.4259
X5.6006Y-3.0873
X5.6045Y-3.1859
X5.6467Y-3.031
X5.6872Y-2.87
X5.7305Y-3.0385
X5.7642Y-3.0736
X5.86Y-3.1279
X5.8626Y-3.2067
X4.7886Y-3.4672
X4.7886Y-3.5066
X4.7886Y-3.546
X4.828Y-3.4672
X4.828Y-3.5066
X4.828Y-3.546
X4.8673Y-3.4672
X4.8673Y-3.5066
X4.8673Y-3.546
X4.9138Y-2.5418
X4.9138Y-2.5812
X4.9138Y-2.6206
X4.9531Y-2.5418
X4.9531Y-2.5812
X4.9531Y-2.6206
X4.9925Y-2.5418
X4.9925Y-2.5812
X4.9925Y-2.6206
T2
X4.4528Y-3.408
X4.4528Y-3.4474
X4.4528Y-3.4868
X4.4528Y-3.5261
X4.4528Y-3.5655
X4.4528Y-3.6049
X4.4528Y-3.6442
X4.4528Y-3.6836
X4.4528Y-3.723
X4.5236Y-3.3883
X4.5236Y-3.4277
X4.5236Y-3.4671
X4.5236Y-3.5064
X4.5236Y-3.5458
X4.5236Y-3.5852
X4.5236Y-3.6246
X4.5236Y-3.6639
X4.5236Y-3.7033
X4.5236Y-3.7427
X4.4528Y-2.488
X4.4528Y-2.5274
X4.4528Y-2.5668
X4.4528Y-2.6061
X4.4528Y-2.6455
X4.4528Y-2.6849
X4.4528Y-2.7242
X4.4528Y-2.7636
X4.4528Y-2.803
X4.5236Y-2.4683
X4.5236Y-2.5077
X4.5236Y-2.5471
X4.5236Y-2.5864
X4.5236Y-2.6258
X4.5236Y-2.6652
X4.5236Y-2.7046
X4.5236Y-2.7439
X4.5236Y-2.7833
X4.5236Y-2.8227
T3
X5.3085Y-3.8649
X5.3093Y-3.7649
T6
X4.7244Y-2.3622
X4.7244Y-3.878
X5.6945Y-3.1289
T4
G00X5.565Y-2.3772
M15
G01X5.4941Y-2.3772
M16
G05
G00X5.565Y-2.9481
M15
G01X5.4941Y-2.9481
M16
G05
G00X5.7894Y-2.3772
M15
G01X5.7421Y-2.3772
M16
G05
G00X5.7894Y-2.9481
M15
G01X5.7421Y-2.9481
M16
G05
G00X5.565Y-3.2972
M15
G01X5.4941Y-3.2972
M16
G05
G00X5.565Y-3.8681
M15
G01X5.4941Y-3.8681
M16
G05
G00X5.7894Y-3.2972
M15
G01X5.7421Y-3.2972
M16
G05
G00X5.7894Y-3.8681
M15
G01X5.7421Y-3.8681
M16
G05
T5
G00X4.4311Y-3.2998
M15
G01X4.5453Y-3.2998
M16
G05
G00X4.4311Y-3.8312
M15
G01X4.5453Y-3.8312
M16
G05
G00X4.4311Y-2.3798
M15
G01X4.5453Y-2.3798
M16
G05
G00X4.4311Y-2.9112
M15
G01X4.5453Y-2.9112
M16
G05
T0
M30
