G04 #@! TF.GenerationSoftware,KiCad,Pcbnew,5.1.4+dfsg1-1~bpo10+1*
G04 #@! TF.CreationDate,2020-01-21T09:26:30+01:00*
G04 #@! TF.ProjectId,video-booster-board,76696465-6f2d-4626-9f6f-737465722d62,rev?*
G04 #@! TF.SameCoordinates,Original*
G04 #@! TF.FileFunction,Legend,Top*
G04 #@! TF.FilePolarity,Positive*
%FSLAX46Y46*%
G04 Gerber Fmt 4.6, Leading zero omitted, Abs format (unit mm)*
G04 Created by KiCad (PCBNEW 5.1.4+dfsg1-1~bpo10+1) date 2020-01-21 09:26:30*
%MOMM*%
%LPD*%
G04 APERTURE LIST*
%ADD10C,0.150000*%
%ADD11C,0.100000*%
%ADD12C,0.127000*%
%ADD13C,0.050000*%
%ADD14C,0.120000*%
%ADD15C,0.200000*%
G04 APERTURE END LIST*
D10*
X131136000Y-81290200D02*
X131636000Y-81510200D01*
X131116000Y-81760200D02*
X131636000Y-81510200D01*
X131116000Y-81280200D02*
X131116000Y-81760200D01*
X137916000Y-77350200D02*
X137916000Y-78050200D01*
X123766000Y-94310200D02*
X123936000Y-94310200D01*
X123756000Y-93920200D02*
X123766000Y-94310200D01*
D11*
X130880000Y-73560000D02*
X130880000Y-73060000D01*
X130980000Y-73560000D02*
X130880000Y-73560000D01*
X131480000Y-74060000D02*
X130980000Y-73560000D01*
X131480000Y-80760000D02*
X130980000Y-80760000D01*
X131480000Y-80260000D02*
X131480000Y-80760000D01*
X124280000Y-80760000D02*
X124280000Y-80260000D01*
X124780000Y-80760000D02*
X124280000Y-80760000D01*
X124280000Y-73560000D02*
X124280000Y-74060000D01*
X124780000Y-73560000D02*
X124280000Y-73560000D01*
X149850000Y-83800000D02*
X150700000Y-83800000D01*
X150700000Y-83800000D02*
X150700000Y-84500000D01*
X150700000Y-97500000D02*
X150700000Y-98200000D01*
X150700000Y-98200000D02*
X149850000Y-98200000D01*
X138100000Y-86750000D02*
X138100000Y-84850000D01*
X138100000Y-84850000D02*
X139050000Y-83900000D01*
X138850000Y-98200000D02*
X138100000Y-98200000D01*
X138100000Y-98200000D02*
X138100000Y-97500000D01*
X149850000Y-60432000D02*
X150700000Y-60432000D01*
X150700000Y-60432000D02*
X150700000Y-61132000D01*
X150700000Y-74132000D02*
X150700000Y-74832000D01*
X150700000Y-74832000D02*
X149850000Y-74832000D01*
X138100000Y-63382000D02*
X138100000Y-61482000D01*
X138100000Y-61482000D02*
X139050000Y-60532000D01*
X138850000Y-74832000D02*
X138100000Y-74832000D01*
X138100000Y-74832000D02*
X138100000Y-74132000D01*
X142601900Y-76934500D02*
X142601900Y-76434500D01*
X142951900Y-77334500D02*
X142601900Y-76934500D01*
X142951900Y-77634500D02*
X142951900Y-77334500D01*
X142951900Y-81584500D02*
X142951900Y-81084500D01*
X142651900Y-81584500D02*
X142951900Y-81584500D01*
X139751900Y-81584500D02*
X139751900Y-81084500D01*
X140101900Y-81584500D02*
X139751900Y-81584500D01*
X139751900Y-76984500D02*
X139751900Y-77584500D01*
X140051900Y-76984500D02*
X139751900Y-76984500D01*
X128410000Y-62962000D02*
X128410000Y-63362000D01*
X128010000Y-62962000D02*
X128410000Y-62962000D01*
X123210000Y-62962000D02*
X123610000Y-62962000D01*
X123210000Y-62962000D02*
X123210000Y-63362000D01*
X128410000Y-68162000D02*
X128010000Y-68162000D01*
X128410000Y-67762000D02*
X128410000Y-68162000D01*
X123810000Y-68162000D02*
X123810000Y-68362000D01*
X123610000Y-68162000D02*
X123810000Y-68162000D01*
X123210000Y-67762000D02*
X123610000Y-68162000D01*
X123210000Y-67562000D02*
X123210000Y-67762000D01*
D12*
X111898500Y-76374900D02*
X111898500Y-75727900D01*
X111898500Y-81929900D02*
X111898500Y-81282900D01*
X118098500Y-76374900D02*
X118098500Y-75727900D01*
X112998500Y-76558900D02*
X112998500Y-77308900D01*
X116998500Y-76558900D02*
X112998500Y-76558900D01*
X116998500Y-77308900D02*
X116998500Y-76558900D01*
X112998500Y-77308900D02*
X116998500Y-77308900D01*
X112998500Y-77808900D02*
X112998500Y-78558900D01*
X116998500Y-77808900D02*
X112998500Y-77808900D01*
X116998500Y-78558900D02*
X116998500Y-77808900D01*
X112998500Y-78558900D02*
X116998500Y-78558900D01*
D13*
X116248500Y-76808900D02*
X114998500Y-76808900D01*
X116248500Y-77058900D02*
X116248500Y-76808900D01*
X113748500Y-77058900D02*
X116248500Y-77058900D01*
X113748500Y-76808900D02*
X113748500Y-77058900D01*
X114998500Y-76808900D02*
X113748500Y-76808900D01*
X114998500Y-77058900D02*
X114998500Y-76808900D01*
X114998500Y-78308900D02*
X114998500Y-78058900D01*
X113748500Y-78058900D02*
X113748500Y-78308900D01*
X114998500Y-78058900D02*
X113748500Y-78058900D01*
X116248500Y-78058900D02*
X114998500Y-78058900D01*
X116248500Y-78308900D02*
X116248500Y-78058900D01*
X114998500Y-78308900D02*
X116248500Y-78308900D01*
X113748500Y-78308900D02*
X114998500Y-78308900D01*
D12*
X112998500Y-79098900D02*
X112998500Y-79848900D01*
X116998500Y-79098900D02*
X112998500Y-79098900D01*
X116998500Y-79848900D02*
X116998500Y-79098900D01*
X112998500Y-79848900D02*
X116998500Y-79848900D01*
X112998500Y-80348900D02*
X112998500Y-81098900D01*
X116998500Y-80348900D02*
X112998500Y-80348900D01*
X116998500Y-81098900D02*
X116998500Y-80348900D01*
X112998500Y-81098900D02*
X116998500Y-81098900D01*
D13*
X116248500Y-79348900D02*
X114998500Y-79348900D01*
X116248500Y-79598900D02*
X116248500Y-79348900D01*
X113748500Y-79598900D02*
X116248500Y-79598900D01*
X113748500Y-79348900D02*
X113748500Y-79598900D01*
X114998500Y-79348900D02*
X113748500Y-79348900D01*
X114998500Y-79598900D02*
X114998500Y-79348900D01*
X114998500Y-80848900D02*
X114998500Y-80598900D01*
X113748500Y-80598900D02*
X113748500Y-80848900D01*
X114998500Y-80598900D02*
X113748500Y-80598900D01*
X116248500Y-80598900D02*
X114998500Y-80598900D01*
X116248500Y-80848900D02*
X116248500Y-80598900D01*
X114998500Y-80848900D02*
X116248500Y-80848900D01*
X113748500Y-80848900D02*
X114998500Y-80848900D01*
D12*
X118096500Y-75728900D02*
X111899500Y-75728900D01*
X118098500Y-81929900D02*
X118098500Y-81282900D01*
X111898500Y-81929900D02*
X118098500Y-81929900D01*
X111895500Y-81929900D02*
X111898500Y-81929900D01*
D14*
X135355900Y-71377400D02*
X135355900Y-70777400D01*
X135955900Y-71377400D02*
X135955900Y-70777400D01*
D11*
X120030000Y-91668000D02*
X120030000Y-91268000D01*
X120430000Y-91668000D02*
X120030000Y-91668000D01*
X125230000Y-91668000D02*
X124830000Y-91668000D01*
X125230000Y-91668000D02*
X125230000Y-91268000D01*
X120030000Y-86468000D02*
X120430000Y-86468000D01*
X120030000Y-86868000D02*
X120030000Y-86468000D01*
X124630000Y-86468000D02*
X124630000Y-86268000D01*
X124830000Y-86468000D02*
X124630000Y-86468000D01*
X125230000Y-86868000D02*
X124830000Y-86468000D01*
X125230000Y-87068000D02*
X125230000Y-86868000D01*
X133455900Y-99527400D02*
X133955900Y-99527400D01*
X133455900Y-99527400D02*
X133455900Y-99027400D01*
X133455900Y-94227400D02*
X133955900Y-94227400D01*
X133455900Y-94227400D02*
X133455900Y-94727400D01*
X136255900Y-94227400D02*
X135755900Y-94227400D01*
X136255900Y-94227400D02*
X136255900Y-94727400D01*
X136255900Y-99527400D02*
X135755900Y-99527400D01*
X136255900Y-99527400D02*
X136255900Y-99027400D01*
X118384700Y-72700000D02*
X118384700Y-73550000D01*
X118484700Y-72700000D02*
X118484700Y-73550000D01*
X117259700Y-73675000D02*
X117259700Y-73450000D01*
X117559700Y-73675000D02*
X117259700Y-73675000D01*
X118809700Y-73675000D02*
X118809700Y-73425000D01*
X118509700Y-73675000D02*
X118809700Y-73675000D01*
X117259700Y-72575000D02*
X117584700Y-72575000D01*
X117259700Y-72575000D02*
X117259700Y-72825000D01*
X118509700Y-72575000D02*
X118809700Y-72575000D01*
X118809700Y-72825000D02*
X118809700Y-72575000D01*
X118584700Y-72700000D02*
X118584700Y-73550000D01*
X118584700Y-73555000D02*
X118384700Y-73555000D01*
X118584700Y-72695000D02*
X118384700Y-72695000D01*
X131530900Y-98477400D02*
X130680900Y-98477400D01*
X131530900Y-98577400D02*
X130680900Y-98577400D01*
X130555900Y-97352400D02*
X130780900Y-97352400D01*
X130555900Y-97652400D02*
X130555900Y-97352400D01*
X130555900Y-98902400D02*
X130805900Y-98902400D01*
X130555900Y-98602400D02*
X130555900Y-98902400D01*
X131655900Y-97352400D02*
X131655900Y-97677400D01*
X131655900Y-97352400D02*
X131405900Y-97352400D01*
X131655900Y-98602400D02*
X131655900Y-98902400D01*
X131405900Y-98902400D02*
X131655900Y-98902400D01*
X131530900Y-98677400D02*
X130680900Y-98677400D01*
X130675900Y-98677400D02*
X130675900Y-98477400D01*
X131535900Y-98677400D02*
X131535900Y-98477400D01*
X125915900Y-60392400D02*
X125915900Y-59542400D01*
X125815900Y-60392400D02*
X125815900Y-59542400D01*
X127040900Y-59417400D02*
X127040900Y-59642400D01*
X126740900Y-59417400D02*
X127040900Y-59417400D01*
X125490900Y-59417400D02*
X125490900Y-59667400D01*
X125790900Y-59417400D02*
X125490900Y-59417400D01*
X127040900Y-60517400D02*
X126715900Y-60517400D01*
X127040900Y-60517400D02*
X127040900Y-60267400D01*
X125790900Y-60517400D02*
X125490900Y-60517400D01*
X125490900Y-60267400D02*
X125490900Y-60517400D01*
X125715900Y-60392400D02*
X125715900Y-59542400D01*
X125715900Y-59537400D02*
X125915900Y-59537400D01*
X125715900Y-60397400D02*
X125915900Y-60397400D01*
X126185900Y-94472400D02*
X126185900Y-93622400D01*
X126085900Y-94472400D02*
X126085900Y-93622400D01*
X127310900Y-93497400D02*
X127310900Y-93722400D01*
X127010900Y-93497400D02*
X127310900Y-93497400D01*
X125760900Y-93497400D02*
X125760900Y-93747400D01*
X126060900Y-93497400D02*
X125760900Y-93497400D01*
X127310900Y-94597400D02*
X126985900Y-94597400D01*
X127310900Y-94597400D02*
X127310900Y-94347400D01*
X126060900Y-94597400D02*
X125760900Y-94597400D01*
X125760900Y-94347400D02*
X125760900Y-94597400D01*
X125985900Y-94472400D02*
X125985900Y-93622400D01*
X125985900Y-93617400D02*
X126185900Y-93617400D01*
X125985900Y-94477400D02*
X126185900Y-94477400D01*
X132150900Y-97767400D02*
X133000900Y-97767400D01*
X132150900Y-97667400D02*
X133000900Y-97667400D01*
X133125900Y-98892400D02*
X132900900Y-98892400D01*
X133125900Y-98592400D02*
X133125900Y-98892400D01*
X133125900Y-97342400D02*
X132875900Y-97342400D01*
X133125900Y-97642400D02*
X133125900Y-97342400D01*
X132025900Y-98892400D02*
X132025900Y-98567400D01*
X132025900Y-98892400D02*
X132275900Y-98892400D01*
X132025900Y-97642400D02*
X132025900Y-97342400D01*
X132275900Y-97342400D02*
X132025900Y-97342400D01*
X132150900Y-97567400D02*
X133000900Y-97567400D01*
X133005900Y-97567400D02*
X133005900Y-97767400D01*
X132145900Y-97567400D02*
X132145900Y-97767400D01*
X131255900Y-96472400D02*
X131255900Y-95622400D01*
X131155900Y-96472400D02*
X131155900Y-95622400D01*
X132380900Y-95497400D02*
X132380900Y-95722400D01*
X132080900Y-95497400D02*
X132380900Y-95497400D01*
X130830900Y-95497400D02*
X130830900Y-95747400D01*
X131130900Y-95497400D02*
X130830900Y-95497400D01*
X132380900Y-96597400D02*
X132055900Y-96597400D01*
X132380900Y-96597400D02*
X132380900Y-96347400D01*
X131130900Y-96597400D02*
X130830900Y-96597400D01*
X130830900Y-96347400D02*
X130830900Y-96597400D01*
X131055900Y-96472400D02*
X131055900Y-95622400D01*
X131055900Y-95617400D02*
X131255900Y-95617400D01*
X131055900Y-96477400D02*
X131255900Y-96477400D01*
D15*
X117160800Y-86981400D02*
G75*
G03X117160800Y-86981400I-100000J0D01*
G01*
D12*
X119029800Y-85451400D02*
X119029800Y-86511400D01*
X116591800Y-86511400D02*
X116591800Y-85451400D01*
D15*
X121982100Y-73363000D02*
G75*
G03X121982100Y-73363000I-100000J0D01*
G01*
D12*
X123851100Y-71833000D02*
X123851100Y-72893000D01*
X121413100Y-72893000D02*
X121413100Y-71833000D01*
D11*
X138379100Y-79605300D02*
X138379100Y-79955300D01*
X138029100Y-79605300D02*
X138379100Y-79605300D01*
X138379100Y-81605300D02*
X138029100Y-81605300D01*
X138379100Y-81255300D02*
X138379100Y-81605300D01*
X135079100Y-79605300D02*
X135079100Y-79955300D01*
X135429100Y-79605300D02*
X135079100Y-79605300D01*
X135429100Y-81655300D02*
X135079100Y-81205300D01*
X135429100Y-82255300D02*
X135429100Y-81655300D01*
D14*
X146808300Y-80660800D02*
X148508300Y-80660800D01*
X146808300Y-79860800D02*
X146808300Y-80660800D01*
X146808300Y-79660800D02*
X146808300Y-79860800D01*
X146908300Y-79660800D02*
X146808300Y-79660800D01*
X147008300Y-79660800D02*
X146908300Y-79660800D01*
X147008300Y-79660800D02*
X148508300Y-79660800D01*
X146795600Y-79213000D02*
X148495600Y-79213000D01*
X146795600Y-78413000D02*
X146795600Y-79213000D01*
X146795600Y-78213000D02*
X146795600Y-78413000D01*
X146895600Y-78213000D02*
X146795600Y-78213000D01*
X146995600Y-78213000D02*
X146895600Y-78213000D01*
X146995600Y-78213000D02*
X148495600Y-78213000D01*
D11*
X137540900Y-96177400D02*
X136690900Y-96177400D01*
X137540900Y-96277400D02*
X136690900Y-96277400D01*
X136565900Y-95052400D02*
X136790900Y-95052400D01*
X136565900Y-95352400D02*
X136565900Y-95052400D01*
X136565900Y-96602400D02*
X136815900Y-96602400D01*
X136565900Y-96302400D02*
X136565900Y-96602400D01*
X137665900Y-95052400D02*
X137665900Y-95377400D01*
X137665900Y-95052400D02*
X137415900Y-95052400D01*
X137665900Y-96302400D02*
X137665900Y-96602400D01*
X137415900Y-96602400D02*
X137665900Y-96602400D01*
X137540900Y-96377400D02*
X136690900Y-96377400D01*
X136685900Y-96377400D02*
X136685900Y-96177400D01*
X137545900Y-96377400D02*
X137545900Y-96177400D01*
D14*
X137435900Y-98127400D02*
X137435900Y-98727400D01*
X136835900Y-98127400D02*
X136835900Y-98727400D01*
X124035900Y-98357400D02*
X124035900Y-97757400D01*
X124635900Y-98357400D02*
X124635900Y-97757400D01*
X128473900Y-84477400D02*
X127873900Y-84477400D01*
X128473900Y-83877400D02*
X127873900Y-83877400D01*
X124025900Y-70857400D02*
X123425900Y-70857400D01*
X124025900Y-70257400D02*
X123425900Y-70257400D01*
D11*
X126225900Y-99242400D02*
X126225900Y-99567400D01*
X126225900Y-99567400D02*
X126525900Y-99567400D01*
X128225900Y-96592400D02*
X128225900Y-96267400D01*
X128225900Y-96267400D02*
X127925900Y-96267400D01*
X126225900Y-96567400D02*
X126225900Y-96267400D01*
X126225900Y-96267400D02*
X126550900Y-96267400D01*
X127900900Y-99567400D02*
X128225900Y-99342400D01*
X128225900Y-99342400D02*
X128225900Y-99242400D01*
X128225900Y-99242400D02*
X128750900Y-99242400D01*
X127900900Y-99567400D02*
X127525900Y-99567400D01*
X137365900Y-63117400D02*
X137365900Y-62617400D01*
X137365900Y-63117400D02*
X136865900Y-63117400D01*
X137365900Y-57867400D02*
X137365900Y-58417400D01*
X137365900Y-57867400D02*
X136865900Y-57867400D01*
X134965900Y-62867400D02*
X134965900Y-61567400D01*
X129365900Y-63117400D02*
X129365900Y-62617400D01*
X129365900Y-63117400D02*
X129865900Y-63117400D01*
X129365900Y-57867400D02*
X129365900Y-58367400D01*
X129365900Y-57867400D02*
X129865900Y-57867400D01*
X131514038Y-72972652D02*
X131514038Y-73296461D01*
X131533085Y-73334557D01*
X131552133Y-73353604D01*
X131590228Y-73372652D01*
X131666419Y-73372652D01*
X131704514Y-73353604D01*
X131723561Y-73334557D01*
X131742609Y-73296461D01*
X131742609Y-72972652D01*
X132104514Y-72972652D02*
X132028323Y-72972652D01*
X131990228Y-72991700D01*
X131971180Y-73010747D01*
X131933085Y-73067890D01*
X131914038Y-73144080D01*
X131914038Y-73296461D01*
X131933085Y-73334557D01*
X131952133Y-73353604D01*
X131990228Y-73372652D01*
X132066419Y-73372652D01*
X132104514Y-73353604D01*
X132123561Y-73334557D01*
X132142609Y-73296461D01*
X132142609Y-73201223D01*
X132123561Y-73163128D01*
X132104514Y-73144080D01*
X132066419Y-73125033D01*
X131990228Y-73125033D01*
X131952133Y-73144080D01*
X131933085Y-73163128D01*
X131914038Y-73201223D01*
X148752666Y-82599152D02*
X148752666Y-82884866D01*
X148733619Y-82942009D01*
X148695523Y-82980104D01*
X148638380Y-82999152D01*
X148600285Y-82999152D01*
X148962190Y-82999152D02*
X149038380Y-82999152D01*
X149076476Y-82980104D01*
X149095523Y-82961057D01*
X149133619Y-82903914D01*
X149152666Y-82827723D01*
X149152666Y-82675342D01*
X149133619Y-82637247D01*
X149114571Y-82618200D01*
X149076476Y-82599152D01*
X149000285Y-82599152D01*
X148962190Y-82618200D01*
X148943142Y-82637247D01*
X148924095Y-82675342D01*
X148924095Y-82770580D01*
X148943142Y-82808676D01*
X148962190Y-82827723D01*
X149000285Y-82846771D01*
X149076476Y-82846771D01*
X149114571Y-82827723D01*
X149133619Y-82808676D01*
X149152666Y-82770580D01*
X148852666Y-75513152D02*
X148852666Y-75798866D01*
X148833619Y-75856009D01*
X148795523Y-75894104D01*
X148738380Y-75913152D01*
X148700285Y-75913152D01*
X149214571Y-75513152D02*
X149138380Y-75513152D01*
X149100285Y-75532200D01*
X149081238Y-75551247D01*
X149043142Y-75608390D01*
X149024095Y-75684580D01*
X149024095Y-75836961D01*
X149043142Y-75875057D01*
X149062190Y-75894104D01*
X149100285Y-75913152D01*
X149176476Y-75913152D01*
X149214571Y-75894104D01*
X149233619Y-75875057D01*
X149252666Y-75836961D01*
X149252666Y-75741723D01*
X149233619Y-75703628D01*
X149214571Y-75684580D01*
X149176476Y-75665533D01*
X149100285Y-75665533D01*
X149062190Y-75684580D01*
X149043142Y-75703628D01*
X149024095Y-75741723D01*
X134592252Y-85348742D02*
X134401776Y-85482076D01*
X134592252Y-85577314D02*
X134192252Y-85577314D01*
X134192252Y-85424933D01*
X134211300Y-85386838D01*
X134230347Y-85367790D01*
X134268442Y-85348742D01*
X134325585Y-85348742D01*
X134363680Y-85367790D01*
X134382728Y-85386838D01*
X134401776Y-85424933D01*
X134401776Y-85577314D01*
X134192252Y-85005885D02*
X134192252Y-85082076D01*
X134211300Y-85120171D01*
X134230347Y-85139219D01*
X134287490Y-85177314D01*
X134363680Y-85196361D01*
X134516061Y-85196361D01*
X134554157Y-85177314D01*
X134573204Y-85158266D01*
X134592252Y-85120171D01*
X134592252Y-85043980D01*
X134573204Y-85005885D01*
X134554157Y-84986838D01*
X134516061Y-84967790D01*
X134420823Y-84967790D01*
X134382728Y-84986838D01*
X134363680Y-85005885D01*
X134344633Y-85043980D01*
X134344633Y-85120171D01*
X134363680Y-85158266D01*
X134382728Y-85177314D01*
X134420823Y-85196361D01*
X134363680Y-84739219D02*
X134344633Y-84777314D01*
X134325585Y-84796361D01*
X134287490Y-84815409D01*
X134268442Y-84815409D01*
X134230347Y-84796361D01*
X134211300Y-84777314D01*
X134192252Y-84739219D01*
X134192252Y-84663028D01*
X134211300Y-84624933D01*
X134230347Y-84605885D01*
X134268442Y-84586838D01*
X134287490Y-84586838D01*
X134325585Y-84605885D01*
X134344633Y-84624933D01*
X134363680Y-84663028D01*
X134363680Y-84739219D01*
X134382728Y-84777314D01*
X134401776Y-84796361D01*
X134439871Y-84815409D01*
X134516061Y-84815409D01*
X134554157Y-84796361D01*
X134573204Y-84777314D01*
X134592252Y-84739219D01*
X134592252Y-84663028D01*
X134573204Y-84624933D01*
X134554157Y-84605885D01*
X134516061Y-84586838D01*
X134439871Y-84586838D01*
X134401776Y-84605885D01*
X134382728Y-84624933D01*
X134363680Y-84663028D01*
X143421138Y-82338352D02*
X143421138Y-82662161D01*
X143440185Y-82700257D01*
X143459233Y-82719304D01*
X143497328Y-82738352D01*
X143573519Y-82738352D01*
X143611614Y-82719304D01*
X143630661Y-82700257D01*
X143649709Y-82662161D01*
X143649709Y-82338352D01*
X143821138Y-82376447D02*
X143840185Y-82357400D01*
X143878280Y-82338352D01*
X143973519Y-82338352D01*
X144011614Y-82357400D01*
X144030661Y-82376447D01*
X144049709Y-82414542D01*
X144049709Y-82452638D01*
X144030661Y-82509780D01*
X143802090Y-82738352D01*
X144049709Y-82738352D01*
X125806852Y-69654542D02*
X125616376Y-69787876D01*
X125806852Y-69883114D02*
X125406852Y-69883114D01*
X125406852Y-69730733D01*
X125425900Y-69692638D01*
X125444947Y-69673590D01*
X125483042Y-69654542D01*
X125540185Y-69654542D01*
X125578280Y-69673590D01*
X125597328Y-69692638D01*
X125616376Y-69730733D01*
X125616376Y-69883114D01*
X125444947Y-69502161D02*
X125425900Y-69483114D01*
X125406852Y-69445019D01*
X125406852Y-69349780D01*
X125425900Y-69311685D01*
X125444947Y-69292638D01*
X125483042Y-69273590D01*
X125521138Y-69273590D01*
X125578280Y-69292638D01*
X125806852Y-69521209D01*
X125806852Y-69273590D01*
X125806852Y-68892638D02*
X125806852Y-69121209D01*
X125806852Y-69006923D02*
X125406852Y-69006923D01*
X125463995Y-69045019D01*
X125502090Y-69083114D01*
X125521138Y-69121209D01*
X130005557Y-96735242D02*
X130024604Y-96754290D01*
X130043652Y-96811433D01*
X130043652Y-96849528D01*
X130024604Y-96906671D01*
X129986509Y-96944766D01*
X129948414Y-96963814D01*
X129872223Y-96982861D01*
X129815080Y-96982861D01*
X129738890Y-96963814D01*
X129700795Y-96944766D01*
X129662700Y-96906671D01*
X129643652Y-96849528D01*
X129643652Y-96811433D01*
X129662700Y-96754290D01*
X129681747Y-96735242D01*
X129681747Y-96582861D02*
X129662700Y-96563814D01*
X129643652Y-96525719D01*
X129643652Y-96430480D01*
X129662700Y-96392385D01*
X129681747Y-96373338D01*
X129719842Y-96354290D01*
X129757938Y-96354290D01*
X129815080Y-96373338D01*
X130043652Y-96601909D01*
X130043652Y-96354290D01*
X129643652Y-96220957D02*
X129643652Y-95954290D01*
X130043652Y-96125719D01*
X125488757Y-82474066D02*
X125507804Y-82493114D01*
X125526852Y-82550257D01*
X125526852Y-82588352D01*
X125507804Y-82645495D01*
X125469709Y-82683590D01*
X125431614Y-82702638D01*
X125355423Y-82721685D01*
X125298280Y-82721685D01*
X125222090Y-82702638D01*
X125183995Y-82683590D01*
X125145900Y-82645495D01*
X125126852Y-82588352D01*
X125126852Y-82550257D01*
X125145900Y-82493114D01*
X125164947Y-82474066D01*
X125126852Y-82112161D02*
X125126852Y-82302638D01*
X125317328Y-82321685D01*
X125298280Y-82302638D01*
X125279233Y-82264542D01*
X125279233Y-82169304D01*
X125298280Y-82131209D01*
X125317328Y-82112161D01*
X125355423Y-82093114D01*
X125450661Y-82093114D01*
X125488757Y-82112161D01*
X125507804Y-82131209D01*
X125526852Y-82169304D01*
X125526852Y-82264542D01*
X125507804Y-82302638D01*
X125488757Y-82321685D01*
X129230238Y-63841352D02*
X129230238Y-64165161D01*
X129249285Y-64203257D01*
X129268333Y-64222304D01*
X129306428Y-64241352D01*
X129382619Y-64241352D01*
X129420714Y-64222304D01*
X129439761Y-64203257D01*
X129458809Y-64165161D01*
X129458809Y-63841352D01*
X129611190Y-63841352D02*
X129858809Y-63841352D01*
X129725476Y-63993733D01*
X129782619Y-63993733D01*
X129820714Y-64012780D01*
X129839761Y-64031828D01*
X129858809Y-64069923D01*
X129858809Y-64165161D01*
X129839761Y-64203257D01*
X129820714Y-64222304D01*
X129782619Y-64241352D01*
X129668333Y-64241352D01*
X129630238Y-64222304D01*
X129611190Y-64203257D01*
X111127304Y-82754733D02*
X111146352Y-82697590D01*
X111146352Y-82602352D01*
X111127304Y-82564257D01*
X111108257Y-82545209D01*
X111070161Y-82526161D01*
X111032066Y-82526161D01*
X110993971Y-82545209D01*
X110974923Y-82564257D01*
X110955876Y-82602352D01*
X110936828Y-82678542D01*
X110917780Y-82716638D01*
X110898733Y-82735685D01*
X110860638Y-82754733D01*
X110822542Y-82754733D01*
X110784447Y-82735685D01*
X110765400Y-82716638D01*
X110746352Y-82678542D01*
X110746352Y-82583304D01*
X110765400Y-82526161D01*
X110746352Y-82392828D02*
X111146352Y-82297590D01*
X110860638Y-82221400D01*
X111146352Y-82145209D01*
X110746352Y-82049971D01*
X111146352Y-81688066D02*
X111146352Y-81916638D01*
X111146352Y-81802352D02*
X110746352Y-81802352D01*
X110803495Y-81840447D01*
X110841590Y-81878542D01*
X110860638Y-81916638D01*
X123586152Y-81132942D02*
X123395676Y-81266276D01*
X123586152Y-81361514D02*
X123186152Y-81361514D01*
X123186152Y-81209133D01*
X123205200Y-81171038D01*
X123224247Y-81151990D01*
X123262342Y-81132942D01*
X123319485Y-81132942D01*
X123357580Y-81151990D01*
X123376628Y-81171038D01*
X123395676Y-81209133D01*
X123395676Y-81361514D01*
X123224247Y-80980561D02*
X123205200Y-80961514D01*
X123186152Y-80923419D01*
X123186152Y-80828180D01*
X123205200Y-80790085D01*
X123224247Y-80771038D01*
X123262342Y-80751990D01*
X123300438Y-80751990D01*
X123357580Y-80771038D01*
X123586152Y-80999609D01*
X123586152Y-80751990D01*
X123186152Y-80504371D02*
X123186152Y-80466276D01*
X123205200Y-80428180D01*
X123224247Y-80409133D01*
X123262342Y-80390085D01*
X123338533Y-80371038D01*
X123433771Y-80371038D01*
X123509961Y-80390085D01*
X123548057Y-80409133D01*
X123567104Y-80428180D01*
X123586152Y-80466276D01*
X123586152Y-80504371D01*
X123567104Y-80542466D01*
X123548057Y-80561514D01*
X123509961Y-80580561D01*
X123433771Y-80599609D01*
X123338533Y-80599609D01*
X123262342Y-80580561D01*
X123224247Y-80561514D01*
X123205200Y-80542466D01*
X123186152Y-80504371D01*
X133206257Y-76928642D02*
X133225304Y-76947690D01*
X133244352Y-77004833D01*
X133244352Y-77042928D01*
X133225304Y-77100071D01*
X133187209Y-77138166D01*
X133149114Y-77157214D01*
X133072923Y-77176261D01*
X133015780Y-77176261D01*
X132939590Y-77157214D01*
X132901495Y-77138166D01*
X132863400Y-77100071D01*
X132844352Y-77042928D01*
X132844352Y-77004833D01*
X132863400Y-76947690D01*
X132882447Y-76928642D01*
X132977685Y-76585785D02*
X133244352Y-76585785D01*
X132825304Y-76681023D02*
X133111019Y-76776261D01*
X133111019Y-76528642D01*
X132882447Y-76395309D02*
X132863400Y-76376261D01*
X132844352Y-76338166D01*
X132844352Y-76242928D01*
X132863400Y-76204833D01*
X132882447Y-76185785D01*
X132920542Y-76166738D01*
X132958638Y-76166738D01*
X133015780Y-76185785D01*
X133244352Y-76414357D01*
X133244352Y-76166738D01*
X137018757Y-71284542D02*
X137037804Y-71303590D01*
X137056852Y-71360733D01*
X137056852Y-71398828D01*
X137037804Y-71455971D01*
X136999709Y-71494066D01*
X136961614Y-71513114D01*
X136885423Y-71532161D01*
X136828280Y-71532161D01*
X136752090Y-71513114D01*
X136713995Y-71494066D01*
X136675900Y-71455971D01*
X136656852Y-71398828D01*
X136656852Y-71360733D01*
X136675900Y-71303590D01*
X136694947Y-71284542D01*
X136790185Y-70941685D02*
X137056852Y-70941685D01*
X136637804Y-71036923D02*
X136923519Y-71132161D01*
X136923519Y-70884542D01*
X137056852Y-70522638D02*
X137056852Y-70751209D01*
X137056852Y-70636923D02*
X136656852Y-70636923D01*
X136713995Y-70675019D01*
X136752090Y-70713114D01*
X136771138Y-70751209D01*
X118916952Y-89132961D02*
X119240761Y-89132961D01*
X119278857Y-89113914D01*
X119297904Y-89094866D01*
X119316952Y-89056771D01*
X119316952Y-88980580D01*
X119297904Y-88942485D01*
X119278857Y-88923438D01*
X119240761Y-88904390D01*
X118916952Y-88904390D01*
X119316952Y-88504390D02*
X119316952Y-88732961D01*
X119316952Y-88618676D02*
X118916952Y-88618676D01*
X118974095Y-88656771D01*
X119012190Y-88694866D01*
X119031238Y-88732961D01*
X122198757Y-96781442D02*
X122217804Y-96800490D01*
X122236852Y-96857633D01*
X122236852Y-96895728D01*
X122217804Y-96952871D01*
X122179709Y-96990966D01*
X122141614Y-97010014D01*
X122065423Y-97029061D01*
X122008280Y-97029061D01*
X121932090Y-97010014D01*
X121893995Y-96990966D01*
X121855900Y-96952871D01*
X121836852Y-96895728D01*
X121836852Y-96857633D01*
X121855900Y-96800490D01*
X121874947Y-96781442D01*
X121836852Y-96648109D02*
X121836852Y-96400490D01*
X121989233Y-96533823D01*
X121989233Y-96476680D01*
X122008280Y-96438585D01*
X122027328Y-96419538D01*
X122065423Y-96400490D01*
X122160661Y-96400490D01*
X122198757Y-96419538D01*
X122217804Y-96438585D01*
X122236852Y-96476680D01*
X122236852Y-96590966D01*
X122217804Y-96629061D01*
X122198757Y-96648109D01*
X121836852Y-96152871D02*
X121836852Y-96114776D01*
X121855900Y-96076680D01*
X121874947Y-96057633D01*
X121913042Y-96038585D01*
X121989233Y-96019538D01*
X122084471Y-96019538D01*
X122160661Y-96038585D01*
X122198757Y-96057633D01*
X122217804Y-96076680D01*
X122236852Y-96114776D01*
X122236852Y-96152871D01*
X122217804Y-96190966D01*
X122198757Y-96210014D01*
X122160661Y-96229061D01*
X122084471Y-96248109D01*
X121989233Y-96248109D01*
X121913042Y-96229061D01*
X121874947Y-96210014D01*
X121855900Y-96190966D01*
X121836852Y-96152871D01*
X133048757Y-74218352D02*
X132915423Y-74027876D01*
X132820185Y-74218352D02*
X132820185Y-73818352D01*
X132972566Y-73818352D01*
X133010661Y-73837400D01*
X133029709Y-73856447D01*
X133048757Y-73894542D01*
X133048757Y-73951685D01*
X133029709Y-73989780D01*
X133010661Y-74008828D01*
X132972566Y-74027876D01*
X132820185Y-74027876D01*
X133391614Y-73818352D02*
X133315423Y-73818352D01*
X133277328Y-73837400D01*
X133258280Y-73856447D01*
X133220185Y-73913590D01*
X133201138Y-73989780D01*
X133201138Y-74142161D01*
X133220185Y-74180257D01*
X133239233Y-74199304D01*
X133277328Y-74218352D01*
X133353519Y-74218352D01*
X133391614Y-74199304D01*
X133410661Y-74180257D01*
X133429709Y-74142161D01*
X133429709Y-74046923D01*
X133410661Y-74008828D01*
X133391614Y-73989780D01*
X133353519Y-73970733D01*
X133277328Y-73970733D01*
X133239233Y-73989780D01*
X133220185Y-74008828D01*
X133201138Y-74046923D01*
X133563042Y-73818352D02*
X133810661Y-73818352D01*
X133677328Y-73970733D01*
X133734471Y-73970733D01*
X133772566Y-73989780D01*
X133791614Y-74008828D01*
X133810661Y-74046923D01*
X133810661Y-74142161D01*
X133791614Y-74180257D01*
X133772566Y-74199304D01*
X133734471Y-74218352D01*
X133620185Y-74218352D01*
X133582090Y-74199304D01*
X133563042Y-74180257D01*
X129806357Y-94061452D02*
X129673023Y-93870976D01*
X129577785Y-94061452D02*
X129577785Y-93661452D01*
X129730166Y-93661452D01*
X129768261Y-93680500D01*
X129787309Y-93699547D01*
X129806357Y-93737642D01*
X129806357Y-93794785D01*
X129787309Y-93832880D01*
X129768261Y-93851928D01*
X129730166Y-93870976D01*
X129577785Y-93870976D01*
X129939690Y-93661452D02*
X130187309Y-93661452D01*
X130053976Y-93813833D01*
X130111119Y-93813833D01*
X130149214Y-93832880D01*
X130168261Y-93851928D01*
X130187309Y-93890023D01*
X130187309Y-93985261D01*
X130168261Y-94023357D01*
X130149214Y-94042404D01*
X130111119Y-94061452D01*
X129996833Y-94061452D01*
X129958738Y-94042404D01*
X129939690Y-94023357D01*
X130339690Y-93699547D02*
X130358738Y-93680500D01*
X130396833Y-93661452D01*
X130492071Y-93661452D01*
X130530166Y-93680500D01*
X130549214Y-93699547D01*
X130568261Y-93737642D01*
X130568261Y-93775738D01*
X130549214Y-93832880D01*
X130320642Y-94061452D01*
X130568261Y-94061452D01*
X129402657Y-72026457D02*
X129383609Y-72045504D01*
X129326466Y-72064552D01*
X129288371Y-72064552D01*
X129231228Y-72045504D01*
X129193133Y-72007409D01*
X129174085Y-71969314D01*
X129155038Y-71893123D01*
X129155038Y-71835980D01*
X129174085Y-71759790D01*
X129193133Y-71721695D01*
X129231228Y-71683600D01*
X129288371Y-71664552D01*
X129326466Y-71664552D01*
X129383609Y-71683600D01*
X129402657Y-71702647D01*
X129535990Y-71664552D02*
X129783609Y-71664552D01*
X129650276Y-71816933D01*
X129707419Y-71816933D01*
X129745514Y-71835980D01*
X129764561Y-71855028D01*
X129783609Y-71893123D01*
X129783609Y-71988361D01*
X129764561Y-72026457D01*
X129745514Y-72045504D01*
X129707419Y-72064552D01*
X129593133Y-72064552D01*
X129555038Y-72045504D01*
X129535990Y-72026457D01*
X129935990Y-71702647D02*
X129955038Y-71683600D01*
X129993133Y-71664552D01*
X130088371Y-71664552D01*
X130126466Y-71683600D01*
X130145514Y-71702647D01*
X130164561Y-71740742D01*
X130164561Y-71778838D01*
X130145514Y-71835980D01*
X129916942Y-72064552D01*
X130164561Y-72064552D01*
X133796852Y-67374542D02*
X133606376Y-67507876D01*
X133796852Y-67603114D02*
X133396852Y-67603114D01*
X133396852Y-67450733D01*
X133415900Y-67412638D01*
X133434947Y-67393590D01*
X133473042Y-67374542D01*
X133530185Y-67374542D01*
X133568280Y-67393590D01*
X133587328Y-67412638D01*
X133606376Y-67450733D01*
X133606376Y-67603114D01*
X133396852Y-67241209D02*
X133396852Y-66993590D01*
X133549233Y-67126923D01*
X133549233Y-67069780D01*
X133568280Y-67031685D01*
X133587328Y-67012638D01*
X133625423Y-66993590D01*
X133720661Y-66993590D01*
X133758757Y-67012638D01*
X133777804Y-67031685D01*
X133796852Y-67069780D01*
X133796852Y-67184066D01*
X133777804Y-67222161D01*
X133758757Y-67241209D01*
X133396852Y-66631685D02*
X133396852Y-66822161D01*
X133587328Y-66841209D01*
X133568280Y-66822161D01*
X133549233Y-66784066D01*
X133549233Y-66688828D01*
X133568280Y-66650733D01*
X133587328Y-66631685D01*
X133625423Y-66612638D01*
X133720661Y-66612638D01*
X133758757Y-66631685D01*
X133777804Y-66650733D01*
X133796852Y-66688828D01*
X133796852Y-66784066D01*
X133777804Y-66822161D01*
X133758757Y-66841209D01*
X136456852Y-72924542D02*
X136266376Y-73057876D01*
X136456852Y-73153114D02*
X136056852Y-73153114D01*
X136056852Y-73000733D01*
X136075900Y-72962638D01*
X136094947Y-72943590D01*
X136133042Y-72924542D01*
X136190185Y-72924542D01*
X136228280Y-72943590D01*
X136247328Y-72962638D01*
X136266376Y-73000733D01*
X136266376Y-73153114D01*
X136056852Y-72581685D02*
X136056852Y-72657876D01*
X136075900Y-72695971D01*
X136094947Y-72715019D01*
X136152090Y-72753114D01*
X136228280Y-72772161D01*
X136380661Y-72772161D01*
X136418757Y-72753114D01*
X136437804Y-72734066D01*
X136456852Y-72695971D01*
X136456852Y-72619780D01*
X136437804Y-72581685D01*
X136418757Y-72562638D01*
X136380661Y-72543590D01*
X136285423Y-72543590D01*
X136247328Y-72562638D01*
X136228280Y-72581685D01*
X136209233Y-72619780D01*
X136209233Y-72695971D01*
X136228280Y-72734066D01*
X136247328Y-72753114D01*
X136285423Y-72772161D01*
X136056852Y-72295971D02*
X136056852Y-72257876D01*
X136075900Y-72219780D01*
X136094947Y-72200733D01*
X136133042Y-72181685D01*
X136209233Y-72162638D01*
X136304471Y-72162638D01*
X136380661Y-72181685D01*
X136418757Y-72200733D01*
X136437804Y-72219780D01*
X136456852Y-72257876D01*
X136456852Y-72295971D01*
X136437804Y-72334066D01*
X136418757Y-72353114D01*
X136380661Y-72372161D01*
X136304471Y-72391209D01*
X136209233Y-72391209D01*
X136133042Y-72372161D01*
X136094947Y-72353114D01*
X136075900Y-72334066D01*
X136056852Y-72295971D01*
X134627290Y-93251852D02*
X134627290Y-93537566D01*
X134608242Y-93594709D01*
X134570147Y-93632804D01*
X134513004Y-93651852D01*
X134474909Y-93651852D01*
X135027290Y-93651852D02*
X134798719Y-93651852D01*
X134913004Y-93651852D02*
X134913004Y-93251852D01*
X134874909Y-93308995D01*
X134836814Y-93347090D01*
X134798719Y-93366138D01*
X135274909Y-93251852D02*
X135313004Y-93251852D01*
X135351100Y-93270900D01*
X135370147Y-93289947D01*
X135389195Y-93328042D01*
X135408242Y-93404233D01*
X135408242Y-93499471D01*
X135389195Y-93575661D01*
X135370147Y-93613757D01*
X135351100Y-93632804D01*
X135313004Y-93651852D01*
X135274909Y-93651852D01*
X135236814Y-93632804D01*
X135217766Y-93613757D01*
X135198719Y-93575661D01*
X135179671Y-93499471D01*
X135179671Y-93404233D01*
X135198719Y-93328042D01*
X135217766Y-93289947D01*
X135236814Y-93270900D01*
X135274909Y-93251852D01*
X116860661Y-72258352D02*
X116860661Y-71858352D01*
X116955900Y-71858352D01*
X117013042Y-71877400D01*
X117051138Y-71915495D01*
X117070185Y-71953590D01*
X117089233Y-72029780D01*
X117089233Y-72086923D01*
X117070185Y-72163114D01*
X117051138Y-72201209D01*
X117013042Y-72239304D01*
X116955900Y-72258352D01*
X116860661Y-72258352D01*
X117432090Y-71858352D02*
X117355900Y-71858352D01*
X117317804Y-71877400D01*
X117298757Y-71896447D01*
X117260661Y-71953590D01*
X117241614Y-72029780D01*
X117241614Y-72182161D01*
X117260661Y-72220257D01*
X117279709Y-72239304D01*
X117317804Y-72258352D01*
X117393995Y-72258352D01*
X117432090Y-72239304D01*
X117451138Y-72220257D01*
X117470185Y-72182161D01*
X117470185Y-72086923D01*
X117451138Y-72048828D01*
X117432090Y-72029780D01*
X117393995Y-72010733D01*
X117317804Y-72010733D01*
X117279709Y-72029780D01*
X117260661Y-72048828D01*
X117241614Y-72086923D01*
X131339352Y-99903238D02*
X130939352Y-99903238D01*
X130939352Y-99808000D01*
X130958400Y-99750857D01*
X130996495Y-99712761D01*
X131034590Y-99693714D01*
X131110780Y-99674666D01*
X131167923Y-99674666D01*
X131244114Y-99693714D01*
X131282209Y-99712761D01*
X131320304Y-99750857D01*
X131339352Y-99808000D01*
X131339352Y-99903238D01*
X130939352Y-99312761D02*
X130939352Y-99503238D01*
X131129828Y-99522285D01*
X131110780Y-99503238D01*
X131091733Y-99465142D01*
X131091733Y-99369904D01*
X131110780Y-99331809D01*
X131129828Y-99312761D01*
X131167923Y-99293714D01*
X131263161Y-99293714D01*
X131301257Y-99312761D01*
X131320304Y-99331809D01*
X131339352Y-99369904D01*
X131339352Y-99465142D01*
X131320304Y-99503238D01*
X131301257Y-99522285D01*
X124110661Y-60128352D02*
X124110661Y-59728352D01*
X124205900Y-59728352D01*
X124263042Y-59747400D01*
X124301138Y-59785495D01*
X124320185Y-59823590D01*
X124339233Y-59899780D01*
X124339233Y-59956923D01*
X124320185Y-60033114D01*
X124301138Y-60071209D01*
X124263042Y-60109304D01*
X124205900Y-60128352D01*
X124110661Y-60128352D01*
X124682090Y-59861685D02*
X124682090Y-60128352D01*
X124586852Y-59709304D02*
X124491614Y-59995019D01*
X124739233Y-59995019D01*
X128060661Y-93958352D02*
X128060661Y-93558352D01*
X128155900Y-93558352D01*
X128213042Y-93577400D01*
X128251138Y-93615495D01*
X128270185Y-93653590D01*
X128289233Y-93729780D01*
X128289233Y-93786923D01*
X128270185Y-93863114D01*
X128251138Y-93901209D01*
X128213042Y-93939304D01*
X128155900Y-93958352D01*
X128060661Y-93958352D01*
X128422566Y-93558352D02*
X128670185Y-93558352D01*
X128536852Y-93710733D01*
X128593995Y-93710733D01*
X128632090Y-93729780D01*
X128651138Y-93748828D01*
X128670185Y-93786923D01*
X128670185Y-93882161D01*
X128651138Y-93920257D01*
X128632090Y-93939304D01*
X128593995Y-93958352D01*
X128479709Y-93958352D01*
X128441614Y-93939304D01*
X128422566Y-93920257D01*
X132701252Y-99832438D02*
X132301252Y-99832438D01*
X132301252Y-99737200D01*
X132320300Y-99680057D01*
X132358395Y-99641961D01*
X132396490Y-99622914D01*
X132472680Y-99603866D01*
X132529823Y-99603866D01*
X132606014Y-99622914D01*
X132644109Y-99641961D01*
X132682204Y-99680057D01*
X132701252Y-99737200D01*
X132701252Y-99832438D01*
X132339347Y-99451485D02*
X132320300Y-99432438D01*
X132301252Y-99394342D01*
X132301252Y-99299104D01*
X132320300Y-99261009D01*
X132339347Y-99241961D01*
X132377442Y-99222914D01*
X132415538Y-99222914D01*
X132472680Y-99241961D01*
X132701252Y-99470533D01*
X132701252Y-99222914D01*
X133236852Y-96334238D02*
X132836852Y-96334238D01*
X132836852Y-96239000D01*
X132855900Y-96181857D01*
X132893995Y-96143761D01*
X132932090Y-96124714D01*
X133008280Y-96105666D01*
X133065423Y-96105666D01*
X133141614Y-96124714D01*
X133179709Y-96143761D01*
X133217804Y-96181857D01*
X133236852Y-96239000D01*
X133236852Y-96334238D01*
X133236852Y-95724714D02*
X133236852Y-95953285D01*
X133236852Y-95839000D02*
X132836852Y-95839000D01*
X132893995Y-95877095D01*
X132932090Y-95915190D01*
X132951138Y-95953285D01*
X116388338Y-84770952D02*
X116388338Y-85094761D01*
X116407385Y-85132857D01*
X116426433Y-85151904D01*
X116464528Y-85170952D01*
X116540719Y-85170952D01*
X116578814Y-85151904D01*
X116597861Y-85132857D01*
X116616909Y-85094761D01*
X116616909Y-84770952D01*
X116769290Y-84770952D02*
X117035957Y-84770952D01*
X116864528Y-85170952D01*
X120551138Y-71258352D02*
X120551138Y-71582161D01*
X120570185Y-71620257D01*
X120589233Y-71639304D01*
X120627328Y-71658352D01*
X120703519Y-71658352D01*
X120741614Y-71639304D01*
X120760661Y-71620257D01*
X120779709Y-71582161D01*
X120779709Y-71258352D01*
X121160661Y-71258352D02*
X120970185Y-71258352D01*
X120951138Y-71448828D01*
X120970185Y-71429780D01*
X121008280Y-71410733D01*
X121103519Y-71410733D01*
X121141614Y-71429780D01*
X121160661Y-71448828D01*
X121179709Y-71486923D01*
X121179709Y-71582161D01*
X121160661Y-71620257D01*
X121141614Y-71639304D01*
X121103519Y-71658352D01*
X121008280Y-71658352D01*
X120970185Y-71639304D01*
X120951138Y-71620257D01*
X133643052Y-85323342D02*
X133452576Y-85456676D01*
X133643052Y-85551914D02*
X133243052Y-85551914D01*
X133243052Y-85399533D01*
X133262100Y-85361438D01*
X133281147Y-85342390D01*
X133319242Y-85323342D01*
X133376385Y-85323342D01*
X133414480Y-85342390D01*
X133433528Y-85361438D01*
X133452576Y-85399533D01*
X133452576Y-85551914D01*
X133243052Y-84980485D02*
X133243052Y-85056676D01*
X133262100Y-85094771D01*
X133281147Y-85113819D01*
X133338290Y-85151914D01*
X133414480Y-85170961D01*
X133566861Y-85170961D01*
X133604957Y-85151914D01*
X133624004Y-85132866D01*
X133643052Y-85094771D01*
X133643052Y-85018580D01*
X133624004Y-84980485D01*
X133604957Y-84961438D01*
X133566861Y-84942390D01*
X133471623Y-84942390D01*
X133433528Y-84961438D01*
X133414480Y-84980485D01*
X133395433Y-85018580D01*
X133395433Y-85094771D01*
X133414480Y-85132866D01*
X133433528Y-85151914D01*
X133471623Y-85170961D01*
X133643052Y-84751914D02*
X133643052Y-84675723D01*
X133624004Y-84637628D01*
X133604957Y-84618580D01*
X133547814Y-84580485D01*
X133471623Y-84561438D01*
X133319242Y-84561438D01*
X133281147Y-84580485D01*
X133262100Y-84599533D01*
X133243052Y-84637628D01*
X133243052Y-84713819D01*
X133262100Y-84751914D01*
X133281147Y-84770961D01*
X133319242Y-84790009D01*
X133414480Y-84790009D01*
X133452576Y-84770961D01*
X133471623Y-84751914D01*
X133490671Y-84713819D01*
X133490671Y-84637628D01*
X133471623Y-84599533D01*
X133452576Y-84580485D01*
X133414480Y-84561438D01*
X145728757Y-81658352D02*
X145595423Y-81467876D01*
X145500185Y-81658352D02*
X145500185Y-81258352D01*
X145652566Y-81258352D01*
X145690661Y-81277400D01*
X145709709Y-81296447D01*
X145728757Y-81334542D01*
X145728757Y-81391685D01*
X145709709Y-81429780D01*
X145690661Y-81448828D01*
X145652566Y-81467876D01*
X145500185Y-81467876D01*
X146071614Y-81258352D02*
X145995423Y-81258352D01*
X145957328Y-81277400D01*
X145938280Y-81296447D01*
X145900185Y-81353590D01*
X145881138Y-81429780D01*
X145881138Y-81582161D01*
X145900185Y-81620257D01*
X145919233Y-81639304D01*
X145957328Y-81658352D01*
X146033519Y-81658352D01*
X146071614Y-81639304D01*
X146090661Y-81620257D01*
X146109709Y-81582161D01*
X146109709Y-81486923D01*
X146090661Y-81448828D01*
X146071614Y-81429780D01*
X146033519Y-81410733D01*
X145957328Y-81410733D01*
X145919233Y-81429780D01*
X145900185Y-81448828D01*
X145881138Y-81486923D01*
X146243042Y-81258352D02*
X146509709Y-81258352D01*
X146338280Y-81658352D01*
X146623357Y-76762552D02*
X146490023Y-76572076D01*
X146394785Y-76762552D02*
X146394785Y-76362552D01*
X146547166Y-76362552D01*
X146585261Y-76381600D01*
X146604309Y-76400647D01*
X146623357Y-76438742D01*
X146623357Y-76495885D01*
X146604309Y-76533980D01*
X146585261Y-76553028D01*
X146547166Y-76572076D01*
X146394785Y-76572076D01*
X146966214Y-76362552D02*
X146890023Y-76362552D01*
X146851928Y-76381600D01*
X146832880Y-76400647D01*
X146794785Y-76457790D01*
X146775738Y-76533980D01*
X146775738Y-76686361D01*
X146794785Y-76724457D01*
X146813833Y-76743504D01*
X146851928Y-76762552D01*
X146928119Y-76762552D01*
X146966214Y-76743504D01*
X146985261Y-76724457D01*
X147004309Y-76686361D01*
X147004309Y-76591123D01*
X146985261Y-76553028D01*
X146966214Y-76533980D01*
X146928119Y-76514933D01*
X146851928Y-76514933D01*
X146813833Y-76533980D01*
X146794785Y-76553028D01*
X146775738Y-76591123D01*
X147347166Y-76362552D02*
X147270976Y-76362552D01*
X147232880Y-76381600D01*
X147213833Y-76400647D01*
X147175738Y-76457790D01*
X147156690Y-76533980D01*
X147156690Y-76686361D01*
X147175738Y-76724457D01*
X147194785Y-76743504D01*
X147232880Y-76762552D01*
X147309071Y-76762552D01*
X147347166Y-76743504D01*
X147366214Y-76724457D01*
X147385261Y-76686361D01*
X147385261Y-76591123D01*
X147366214Y-76553028D01*
X147347166Y-76533980D01*
X147309071Y-76514933D01*
X147232880Y-76514933D01*
X147194785Y-76533980D01*
X147175738Y-76553028D01*
X147156690Y-76591123D01*
X136792252Y-86136142D02*
X136601776Y-86269476D01*
X136792252Y-86364714D02*
X136392252Y-86364714D01*
X136392252Y-86212333D01*
X136411300Y-86174238D01*
X136430347Y-86155190D01*
X136468442Y-86136142D01*
X136525585Y-86136142D01*
X136563680Y-86155190D01*
X136582728Y-86174238D01*
X136601776Y-86212333D01*
X136601776Y-86364714D01*
X136392252Y-85793285D02*
X136392252Y-85869476D01*
X136411300Y-85907571D01*
X136430347Y-85926619D01*
X136487490Y-85964714D01*
X136563680Y-85983761D01*
X136716061Y-85983761D01*
X136754157Y-85964714D01*
X136773204Y-85945666D01*
X136792252Y-85907571D01*
X136792252Y-85831380D01*
X136773204Y-85793285D01*
X136754157Y-85774238D01*
X136716061Y-85755190D01*
X136620823Y-85755190D01*
X136582728Y-85774238D01*
X136563680Y-85793285D01*
X136544633Y-85831380D01*
X136544633Y-85907571D01*
X136563680Y-85945666D01*
X136582728Y-85964714D01*
X136620823Y-85983761D01*
X136392252Y-85393285D02*
X136392252Y-85583761D01*
X136582728Y-85602809D01*
X136563680Y-85583761D01*
X136544633Y-85545666D01*
X136544633Y-85450428D01*
X136563680Y-85412333D01*
X136582728Y-85393285D01*
X136620823Y-85374238D01*
X136716061Y-85374238D01*
X136754157Y-85393285D01*
X136773204Y-85412333D01*
X136792252Y-85450428D01*
X136792252Y-85545666D01*
X136773204Y-85583761D01*
X136754157Y-85602809D01*
X135784352Y-86098042D02*
X135593876Y-86231376D01*
X135784352Y-86326614D02*
X135384352Y-86326614D01*
X135384352Y-86174233D01*
X135403400Y-86136138D01*
X135422447Y-86117090D01*
X135460542Y-86098042D01*
X135517685Y-86098042D01*
X135555780Y-86117090D01*
X135574828Y-86136138D01*
X135593876Y-86174233D01*
X135593876Y-86326614D01*
X135384352Y-85755185D02*
X135384352Y-85831376D01*
X135403400Y-85869471D01*
X135422447Y-85888519D01*
X135479590Y-85926614D01*
X135555780Y-85945661D01*
X135708161Y-85945661D01*
X135746257Y-85926614D01*
X135765304Y-85907566D01*
X135784352Y-85869471D01*
X135784352Y-85793280D01*
X135765304Y-85755185D01*
X135746257Y-85736138D01*
X135708161Y-85717090D01*
X135612923Y-85717090D01*
X135574828Y-85736138D01*
X135555780Y-85755185D01*
X135536733Y-85793280D01*
X135536733Y-85869471D01*
X135555780Y-85907566D01*
X135574828Y-85926614D01*
X135612923Y-85945661D01*
X135517685Y-85374233D02*
X135784352Y-85374233D01*
X135365304Y-85469471D02*
X135651019Y-85564709D01*
X135651019Y-85317090D01*
X133048757Y-73158352D02*
X132915423Y-72967876D01*
X132820185Y-73158352D02*
X132820185Y-72758352D01*
X132972566Y-72758352D01*
X133010661Y-72777400D01*
X133029709Y-72796447D01*
X133048757Y-72834542D01*
X133048757Y-72891685D01*
X133029709Y-72929780D01*
X133010661Y-72948828D01*
X132972566Y-72967876D01*
X132820185Y-72967876D01*
X133391614Y-72758352D02*
X133315423Y-72758352D01*
X133277328Y-72777400D01*
X133258280Y-72796447D01*
X133220185Y-72853590D01*
X133201138Y-72929780D01*
X133201138Y-73082161D01*
X133220185Y-73120257D01*
X133239233Y-73139304D01*
X133277328Y-73158352D01*
X133353519Y-73158352D01*
X133391614Y-73139304D01*
X133410661Y-73120257D01*
X133429709Y-73082161D01*
X133429709Y-72986923D01*
X133410661Y-72948828D01*
X133391614Y-72929780D01*
X133353519Y-72910733D01*
X133277328Y-72910733D01*
X133239233Y-72929780D01*
X133220185Y-72948828D01*
X133201138Y-72986923D01*
X133582090Y-72796447D02*
X133601138Y-72777400D01*
X133639233Y-72758352D01*
X133734471Y-72758352D01*
X133772566Y-72777400D01*
X133791614Y-72796447D01*
X133810661Y-72834542D01*
X133810661Y-72872638D01*
X133791614Y-72929780D01*
X133563042Y-73158352D01*
X133810661Y-73158352D01*
X136432123Y-80649752D02*
X136432123Y-80249752D01*
X136851171Y-80611657D02*
X136832123Y-80630704D01*
X136774980Y-80649752D01*
X136736885Y-80649752D01*
X136679742Y-80630704D01*
X136641647Y-80592609D01*
X136622600Y-80554514D01*
X136603552Y-80478323D01*
X136603552Y-80421180D01*
X136622600Y-80344990D01*
X136641647Y-80306895D01*
X136679742Y-80268800D01*
X136736885Y-80249752D01*
X136774980Y-80249752D01*
X136832123Y-80268800D01*
X136851171Y-80287847D01*
X137232123Y-80649752D02*
X137003552Y-80649752D01*
X137117838Y-80649752D02*
X137117838Y-80249752D01*
X137079742Y-80306895D01*
X137041647Y-80344990D01*
X137003552Y-80364038D01*
X149024161Y-81513352D02*
X149024161Y-81113352D01*
X149119400Y-81113352D01*
X149176542Y-81132400D01*
X149214638Y-81170495D01*
X149233685Y-81208590D01*
X149252733Y-81284780D01*
X149252733Y-81341923D01*
X149233685Y-81418114D01*
X149214638Y-81456209D01*
X149176542Y-81494304D01*
X149119400Y-81513352D01*
X149024161Y-81513352D01*
X149443209Y-81513352D02*
X149519400Y-81513352D01*
X149557495Y-81494304D01*
X149576542Y-81475257D01*
X149614638Y-81418114D01*
X149633685Y-81341923D01*
X149633685Y-81189542D01*
X149614638Y-81151447D01*
X149595590Y-81132400D01*
X149557495Y-81113352D01*
X149481304Y-81113352D01*
X149443209Y-81132400D01*
X149424161Y-81151447D01*
X149405114Y-81189542D01*
X149405114Y-81284780D01*
X149424161Y-81322876D01*
X149443209Y-81341923D01*
X149481304Y-81360971D01*
X149557495Y-81360971D01*
X149595590Y-81341923D01*
X149614638Y-81322876D01*
X149633685Y-81284780D01*
X148947961Y-77779552D02*
X148947961Y-77379552D01*
X149043200Y-77379552D01*
X149100342Y-77398600D01*
X149138438Y-77436695D01*
X149157485Y-77474790D01*
X149176533Y-77550980D01*
X149176533Y-77608123D01*
X149157485Y-77684314D01*
X149138438Y-77722409D01*
X149100342Y-77760504D01*
X149043200Y-77779552D01*
X148947961Y-77779552D01*
X149405104Y-77550980D02*
X149367009Y-77531933D01*
X149347961Y-77512885D01*
X149328914Y-77474790D01*
X149328914Y-77455742D01*
X149347961Y-77417647D01*
X149367009Y-77398600D01*
X149405104Y-77379552D01*
X149481295Y-77379552D01*
X149519390Y-77398600D01*
X149538438Y-77417647D01*
X149557485Y-77455742D01*
X149557485Y-77474790D01*
X149538438Y-77512885D01*
X149519390Y-77531933D01*
X149481295Y-77550980D01*
X149405104Y-77550980D01*
X149367009Y-77570028D01*
X149347961Y-77589076D01*
X149328914Y-77627171D01*
X149328914Y-77703361D01*
X149347961Y-77741457D01*
X149367009Y-77760504D01*
X149405104Y-77779552D01*
X149481295Y-77779552D01*
X149519390Y-77760504D01*
X149538438Y-77741457D01*
X149557485Y-77703361D01*
X149557485Y-77627171D01*
X149538438Y-77589076D01*
X149519390Y-77570028D01*
X149481295Y-77550980D01*
X137396852Y-94372638D02*
X136996852Y-94372638D01*
X136996852Y-94277400D01*
X137015900Y-94220257D01*
X137053995Y-94182161D01*
X137092090Y-94163114D01*
X137168280Y-94144066D01*
X137225423Y-94144066D01*
X137301614Y-94163114D01*
X137339709Y-94182161D01*
X137377804Y-94220257D01*
X137396852Y-94277400D01*
X137396852Y-94372638D01*
X136996852Y-94010733D02*
X136996852Y-93744066D01*
X137396852Y-93915495D01*
X133612657Y-81640342D02*
X133631704Y-81659390D01*
X133650752Y-81716533D01*
X133650752Y-81754628D01*
X133631704Y-81811771D01*
X133593609Y-81849866D01*
X133555514Y-81868914D01*
X133479323Y-81887961D01*
X133422180Y-81887961D01*
X133345990Y-81868914D01*
X133307895Y-81849866D01*
X133269800Y-81811771D01*
X133250752Y-81754628D01*
X133250752Y-81716533D01*
X133269800Y-81659390D01*
X133288847Y-81640342D01*
X133384085Y-81297485D02*
X133650752Y-81297485D01*
X133231704Y-81392723D02*
X133517419Y-81487961D01*
X133517419Y-81240342D01*
X133250752Y-81011771D02*
X133250752Y-80973676D01*
X133269800Y-80935580D01*
X133288847Y-80916533D01*
X133326942Y-80897485D01*
X133403133Y-80878438D01*
X133498371Y-80878438D01*
X133574561Y-80897485D01*
X133612657Y-80916533D01*
X133631704Y-80935580D01*
X133650752Y-80973676D01*
X133650752Y-81011771D01*
X133631704Y-81049866D01*
X133612657Y-81068914D01*
X133574561Y-81087961D01*
X133498371Y-81107009D01*
X133403133Y-81107009D01*
X133326942Y-81087961D01*
X133288847Y-81068914D01*
X133269800Y-81049866D01*
X133250752Y-81011771D01*
X117515457Y-83367557D02*
X117496409Y-83386604D01*
X117439266Y-83405652D01*
X117401171Y-83405652D01*
X117344028Y-83386604D01*
X117305933Y-83348509D01*
X117286885Y-83310414D01*
X117267838Y-83234223D01*
X117267838Y-83177080D01*
X117286885Y-83100890D01*
X117305933Y-83062795D01*
X117344028Y-83024700D01*
X117401171Y-83005652D01*
X117439266Y-83005652D01*
X117496409Y-83024700D01*
X117515457Y-83043747D01*
X117648790Y-83005652D02*
X117896409Y-83005652D01*
X117763076Y-83158033D01*
X117820219Y-83158033D01*
X117858314Y-83177080D01*
X117877361Y-83196128D01*
X117896409Y-83234223D01*
X117896409Y-83329461D01*
X117877361Y-83367557D01*
X117858314Y-83386604D01*
X117820219Y-83405652D01*
X117705933Y-83405652D01*
X117667838Y-83386604D01*
X117648790Y-83367557D01*
X118086885Y-83405652D02*
X118163076Y-83405652D01*
X118201171Y-83386604D01*
X118220219Y-83367557D01*
X118258314Y-83310414D01*
X118277361Y-83234223D01*
X118277361Y-83081842D01*
X118258314Y-83043747D01*
X118239266Y-83024700D01*
X118201171Y-83005652D01*
X118124980Y-83005652D01*
X118086885Y-83024700D01*
X118067838Y-83043747D01*
X118048790Y-83081842D01*
X118048790Y-83177080D01*
X118067838Y-83215176D01*
X118086885Y-83234223D01*
X118124980Y-83253271D01*
X118201171Y-83253271D01*
X118239266Y-83234223D01*
X118258314Y-83215176D01*
X118277361Y-83177080D01*
X118998757Y-75620257D02*
X118979709Y-75639304D01*
X118922566Y-75658352D01*
X118884471Y-75658352D01*
X118827328Y-75639304D01*
X118789233Y-75601209D01*
X118770185Y-75563114D01*
X118751138Y-75486923D01*
X118751138Y-75429780D01*
X118770185Y-75353590D01*
X118789233Y-75315495D01*
X118827328Y-75277400D01*
X118884471Y-75258352D01*
X118922566Y-75258352D01*
X118979709Y-75277400D01*
X118998757Y-75296447D01*
X119132090Y-75258352D02*
X119379709Y-75258352D01*
X119246376Y-75410733D01*
X119303519Y-75410733D01*
X119341614Y-75429780D01*
X119360661Y-75448828D01*
X119379709Y-75486923D01*
X119379709Y-75582161D01*
X119360661Y-75620257D01*
X119341614Y-75639304D01*
X119303519Y-75658352D01*
X119189233Y-75658352D01*
X119151138Y-75639304D01*
X119132090Y-75620257D01*
X119608280Y-75429780D02*
X119570185Y-75410733D01*
X119551138Y-75391685D01*
X119532090Y-75353590D01*
X119532090Y-75334542D01*
X119551138Y-75296447D01*
X119570185Y-75277400D01*
X119608280Y-75258352D01*
X119684471Y-75258352D01*
X119722566Y-75277400D01*
X119741614Y-75296447D01*
X119760661Y-75334542D01*
X119760661Y-75353590D01*
X119741614Y-75391685D01*
X119722566Y-75410733D01*
X119684471Y-75429780D01*
X119608280Y-75429780D01*
X119570185Y-75448828D01*
X119551138Y-75467876D01*
X119532090Y-75505971D01*
X119532090Y-75582161D01*
X119551138Y-75620257D01*
X119570185Y-75639304D01*
X119608280Y-75658352D01*
X119684471Y-75658352D01*
X119722566Y-75639304D01*
X119741614Y-75620257D01*
X119760661Y-75582161D01*
X119760661Y-75505971D01*
X119741614Y-75467876D01*
X119722566Y-75448828D01*
X119684471Y-75429780D01*
X138298757Y-99620257D02*
X138279709Y-99639304D01*
X138222566Y-99658352D01*
X138184471Y-99658352D01*
X138127328Y-99639304D01*
X138089233Y-99601209D01*
X138070185Y-99563114D01*
X138051138Y-99486923D01*
X138051138Y-99429780D01*
X138070185Y-99353590D01*
X138089233Y-99315495D01*
X138127328Y-99277400D01*
X138184471Y-99258352D01*
X138222566Y-99258352D01*
X138279709Y-99277400D01*
X138298757Y-99296447D01*
X138432090Y-99258352D02*
X138679709Y-99258352D01*
X138546376Y-99410733D01*
X138603519Y-99410733D01*
X138641614Y-99429780D01*
X138660661Y-99448828D01*
X138679709Y-99486923D01*
X138679709Y-99582161D01*
X138660661Y-99620257D01*
X138641614Y-99639304D01*
X138603519Y-99658352D01*
X138489233Y-99658352D01*
X138451138Y-99639304D01*
X138432090Y-99620257D01*
X139022566Y-99258352D02*
X138946376Y-99258352D01*
X138908280Y-99277400D01*
X138889233Y-99296447D01*
X138851138Y-99353590D01*
X138832090Y-99429780D01*
X138832090Y-99582161D01*
X138851138Y-99620257D01*
X138870185Y-99639304D01*
X138908280Y-99658352D01*
X138984471Y-99658352D01*
X139022566Y-99639304D01*
X139041614Y-99620257D01*
X139060661Y-99582161D01*
X139060661Y-99486923D01*
X139041614Y-99448828D01*
X139022566Y-99429780D01*
X138984471Y-99410733D01*
X138908280Y-99410733D01*
X138870185Y-99429780D01*
X138851138Y-99448828D01*
X138832090Y-99486923D01*
X144298757Y-76420257D02*
X144279709Y-76439304D01*
X144222566Y-76458352D01*
X144184471Y-76458352D01*
X144127328Y-76439304D01*
X144089233Y-76401209D01*
X144070185Y-76363114D01*
X144051138Y-76286923D01*
X144051138Y-76229780D01*
X144070185Y-76153590D01*
X144089233Y-76115495D01*
X144127328Y-76077400D01*
X144184471Y-76058352D01*
X144222566Y-76058352D01*
X144279709Y-76077400D01*
X144298757Y-76096447D01*
X144432090Y-76058352D02*
X144679709Y-76058352D01*
X144546376Y-76210733D01*
X144603519Y-76210733D01*
X144641614Y-76229780D01*
X144660661Y-76248828D01*
X144679709Y-76286923D01*
X144679709Y-76382161D01*
X144660661Y-76420257D01*
X144641614Y-76439304D01*
X144603519Y-76458352D01*
X144489233Y-76458352D01*
X144451138Y-76439304D01*
X144432090Y-76420257D01*
X145060661Y-76458352D02*
X144832090Y-76458352D01*
X144946376Y-76458352D02*
X144946376Y-76058352D01*
X144908280Y-76115495D01*
X144870185Y-76153590D01*
X144832090Y-76172638D01*
X118998757Y-74620257D02*
X118979709Y-74639304D01*
X118922566Y-74658352D01*
X118884471Y-74658352D01*
X118827328Y-74639304D01*
X118789233Y-74601209D01*
X118770185Y-74563114D01*
X118751138Y-74486923D01*
X118751138Y-74429780D01*
X118770185Y-74353590D01*
X118789233Y-74315495D01*
X118827328Y-74277400D01*
X118884471Y-74258352D01*
X118922566Y-74258352D01*
X118979709Y-74277400D01*
X118998757Y-74296447D01*
X119132090Y-74258352D02*
X119379709Y-74258352D01*
X119246376Y-74410733D01*
X119303519Y-74410733D01*
X119341614Y-74429780D01*
X119360661Y-74448828D01*
X119379709Y-74486923D01*
X119379709Y-74582161D01*
X119360661Y-74620257D01*
X119341614Y-74639304D01*
X119303519Y-74658352D01*
X119189233Y-74658352D01*
X119151138Y-74639304D01*
X119132090Y-74620257D01*
X119513042Y-74258352D02*
X119760661Y-74258352D01*
X119627328Y-74410733D01*
X119684471Y-74410733D01*
X119722566Y-74429780D01*
X119741614Y-74448828D01*
X119760661Y-74486923D01*
X119760661Y-74582161D01*
X119741614Y-74620257D01*
X119722566Y-74639304D01*
X119684471Y-74658352D01*
X119570185Y-74658352D01*
X119532090Y-74639304D01*
X119513042Y-74620257D01*
X137972857Y-83230257D02*
X137953809Y-83249304D01*
X137896666Y-83268352D01*
X137858571Y-83268352D01*
X137801428Y-83249304D01*
X137763333Y-83211209D01*
X137744285Y-83173114D01*
X137725238Y-83096923D01*
X137725238Y-83039780D01*
X137744285Y-82963590D01*
X137763333Y-82925495D01*
X137801428Y-82887400D01*
X137858571Y-82868352D01*
X137896666Y-82868352D01*
X137953809Y-82887400D01*
X137972857Y-82906447D01*
X138106190Y-82868352D02*
X138353809Y-82868352D01*
X138220476Y-83020733D01*
X138277619Y-83020733D01*
X138315714Y-83039780D01*
X138334761Y-83058828D01*
X138353809Y-83096923D01*
X138353809Y-83192161D01*
X138334761Y-83230257D01*
X138315714Y-83249304D01*
X138277619Y-83268352D01*
X138163333Y-83268352D01*
X138125238Y-83249304D01*
X138106190Y-83230257D01*
X138696666Y-83001685D02*
X138696666Y-83268352D01*
X138601428Y-82849304D02*
X138506190Y-83135019D01*
X138753809Y-83135019D01*
X123198757Y-96834542D02*
X123217804Y-96853590D01*
X123236852Y-96910733D01*
X123236852Y-96948828D01*
X123217804Y-97005971D01*
X123179709Y-97044066D01*
X123141614Y-97063114D01*
X123065423Y-97082161D01*
X123008280Y-97082161D01*
X122932090Y-97063114D01*
X122893995Y-97044066D01*
X122855900Y-97005971D01*
X122836852Y-96948828D01*
X122836852Y-96910733D01*
X122855900Y-96853590D01*
X122874947Y-96834542D01*
X122836852Y-96701209D02*
X122836852Y-96453590D01*
X122989233Y-96586923D01*
X122989233Y-96529780D01*
X123008280Y-96491685D01*
X123027328Y-96472638D01*
X123065423Y-96453590D01*
X123160661Y-96453590D01*
X123198757Y-96472638D01*
X123217804Y-96491685D01*
X123236852Y-96529780D01*
X123236852Y-96644066D01*
X123217804Y-96682161D01*
X123198757Y-96701209D01*
X122836852Y-96091685D02*
X122836852Y-96282161D01*
X123027328Y-96301209D01*
X123008280Y-96282161D01*
X122989233Y-96244066D01*
X122989233Y-96148828D01*
X123008280Y-96110733D01*
X123027328Y-96091685D01*
X123065423Y-96072638D01*
X123160661Y-96072638D01*
X123198757Y-96091685D01*
X123217804Y-96110733D01*
X123236852Y-96148828D01*
X123236852Y-96244066D01*
X123217804Y-96282161D01*
X123198757Y-96301209D01*
X122527157Y-74869142D02*
X122546204Y-74888190D01*
X122565252Y-74945333D01*
X122565252Y-74983428D01*
X122546204Y-75040571D01*
X122508109Y-75078666D01*
X122470014Y-75097714D01*
X122393823Y-75116761D01*
X122336680Y-75116761D01*
X122260490Y-75097714D01*
X122222395Y-75078666D01*
X122184300Y-75040571D01*
X122165252Y-74983428D01*
X122165252Y-74945333D01*
X122184300Y-74888190D01*
X122203347Y-74869142D01*
X122165252Y-74735809D02*
X122165252Y-74488190D01*
X122317633Y-74621523D01*
X122317633Y-74564380D01*
X122336680Y-74526285D01*
X122355728Y-74507238D01*
X122393823Y-74488190D01*
X122489061Y-74488190D01*
X122527157Y-74507238D01*
X122546204Y-74526285D01*
X122565252Y-74564380D01*
X122565252Y-74678666D01*
X122546204Y-74716761D01*
X122527157Y-74735809D01*
X122165252Y-74354857D02*
X122165252Y-74088190D01*
X122565252Y-74259619D01*
X131618757Y-71498352D02*
X131485423Y-71307876D01*
X131390185Y-71498352D02*
X131390185Y-71098352D01*
X131542566Y-71098352D01*
X131580661Y-71117400D01*
X131599709Y-71136447D01*
X131618757Y-71174542D01*
X131618757Y-71231685D01*
X131599709Y-71269780D01*
X131580661Y-71288828D01*
X131542566Y-71307876D01*
X131390185Y-71307876D01*
X131980661Y-71098352D02*
X131790185Y-71098352D01*
X131771138Y-71288828D01*
X131790185Y-71269780D01*
X131828280Y-71250733D01*
X131923519Y-71250733D01*
X131961614Y-71269780D01*
X131980661Y-71288828D01*
X131999709Y-71326923D01*
X131999709Y-71422161D01*
X131980661Y-71460257D01*
X131961614Y-71479304D01*
X131923519Y-71498352D01*
X131828280Y-71498352D01*
X131790185Y-71479304D01*
X131771138Y-71460257D01*
X132190185Y-71498352D02*
X132266376Y-71498352D01*
X132304471Y-71479304D01*
X132323519Y-71460257D01*
X132361614Y-71403114D01*
X132380661Y-71326923D01*
X132380661Y-71174542D01*
X132361614Y-71136447D01*
X132342566Y-71117400D01*
X132304471Y-71098352D01*
X132228280Y-71098352D01*
X132190185Y-71117400D01*
X132171138Y-71136447D01*
X132152090Y-71174542D01*
X132152090Y-71269780D01*
X132171138Y-71307876D01*
X132190185Y-71326923D01*
X132228280Y-71345971D01*
X132304471Y-71345971D01*
X132342566Y-71326923D01*
X132361614Y-71307876D01*
X132380661Y-71269780D01*
X130186852Y-70634542D02*
X129996376Y-70767876D01*
X130186852Y-70863114D02*
X129786852Y-70863114D01*
X129786852Y-70710733D01*
X129805900Y-70672638D01*
X129824947Y-70653590D01*
X129863042Y-70634542D01*
X129920185Y-70634542D01*
X129958280Y-70653590D01*
X129977328Y-70672638D01*
X129996376Y-70710733D01*
X129996376Y-70863114D01*
X129786852Y-70272638D02*
X129786852Y-70463114D01*
X129977328Y-70482161D01*
X129958280Y-70463114D01*
X129939233Y-70425019D01*
X129939233Y-70329780D01*
X129958280Y-70291685D01*
X129977328Y-70272638D01*
X130015423Y-70253590D01*
X130110661Y-70253590D01*
X130148757Y-70272638D01*
X130167804Y-70291685D01*
X130186852Y-70329780D01*
X130186852Y-70425019D01*
X130167804Y-70463114D01*
X130148757Y-70482161D01*
X129958280Y-70025019D02*
X129939233Y-70063114D01*
X129920185Y-70082161D01*
X129882090Y-70101209D01*
X129863042Y-70101209D01*
X129824947Y-70082161D01*
X129805900Y-70063114D01*
X129786852Y-70025019D01*
X129786852Y-69948828D01*
X129805900Y-69910733D01*
X129824947Y-69891685D01*
X129863042Y-69872638D01*
X129882090Y-69872638D01*
X129920185Y-69891685D01*
X129939233Y-69910733D01*
X129958280Y-69948828D01*
X129958280Y-70025019D01*
X129977328Y-70063114D01*
X129996376Y-70082161D01*
X130034471Y-70101209D01*
X130110661Y-70101209D01*
X130148757Y-70082161D01*
X130167804Y-70063114D01*
X130186852Y-70025019D01*
X130186852Y-69948828D01*
X130167804Y-69910733D01*
X130148757Y-69891685D01*
X130110661Y-69872638D01*
X130034471Y-69872638D01*
X129996376Y-69891685D01*
X129977328Y-69910733D01*
X129958280Y-69948828D01*
X139246852Y-78274542D02*
X139056376Y-78407876D01*
X139246852Y-78503114D02*
X138846852Y-78503114D01*
X138846852Y-78350733D01*
X138865900Y-78312638D01*
X138884947Y-78293590D01*
X138923042Y-78274542D01*
X138980185Y-78274542D01*
X139018280Y-78293590D01*
X139037328Y-78312638D01*
X139056376Y-78350733D01*
X139056376Y-78503114D01*
X138846852Y-77912638D02*
X138846852Y-78103114D01*
X139037328Y-78122161D01*
X139018280Y-78103114D01*
X138999233Y-78065019D01*
X138999233Y-77969780D01*
X139018280Y-77931685D01*
X139037328Y-77912638D01*
X139075423Y-77893590D01*
X139170661Y-77893590D01*
X139208757Y-77912638D01*
X139227804Y-77931685D01*
X139246852Y-77969780D01*
X139246852Y-78065019D01*
X139227804Y-78103114D01*
X139208757Y-78122161D01*
X138846852Y-77550733D02*
X138846852Y-77626923D01*
X138865900Y-77665019D01*
X138884947Y-77684066D01*
X138942090Y-77722161D01*
X139018280Y-77741209D01*
X139170661Y-77741209D01*
X139208757Y-77722161D01*
X139227804Y-77703114D01*
X139246852Y-77665019D01*
X139246852Y-77588828D01*
X139227804Y-77550733D01*
X139208757Y-77531685D01*
X139170661Y-77512638D01*
X139075423Y-77512638D01*
X139037328Y-77531685D01*
X139018280Y-77550733D01*
X138999233Y-77588828D01*
X138999233Y-77665019D01*
X139018280Y-77703114D01*
X139037328Y-77722161D01*
X139075423Y-77741209D01*
X132128857Y-86479152D02*
X131995523Y-86288676D01*
X131900285Y-86479152D02*
X131900285Y-86079152D01*
X132052666Y-86079152D01*
X132090761Y-86098200D01*
X132109809Y-86117247D01*
X132128857Y-86155342D01*
X132128857Y-86212485D01*
X132109809Y-86250580D01*
X132090761Y-86269628D01*
X132052666Y-86288676D01*
X131900285Y-86288676D01*
X132490761Y-86079152D02*
X132300285Y-86079152D01*
X132281238Y-86269628D01*
X132300285Y-86250580D01*
X132338380Y-86231533D01*
X132433619Y-86231533D01*
X132471714Y-86250580D01*
X132490761Y-86269628D01*
X132509809Y-86307723D01*
X132509809Y-86402961D01*
X132490761Y-86441057D01*
X132471714Y-86460104D01*
X132433619Y-86479152D01*
X132338380Y-86479152D01*
X132300285Y-86460104D01*
X132281238Y-86441057D01*
X132852666Y-86212485D02*
X132852666Y-86479152D01*
X132757428Y-86060104D02*
X132662190Y-86345819D01*
X132909809Y-86345819D01*
X132208857Y-89789152D02*
X132075523Y-89598676D01*
X131980285Y-89789152D02*
X131980285Y-89389152D01*
X132132666Y-89389152D01*
X132170761Y-89408200D01*
X132189809Y-89427247D01*
X132208857Y-89465342D01*
X132208857Y-89522485D01*
X132189809Y-89560580D01*
X132170761Y-89579628D01*
X132132666Y-89598676D01*
X131980285Y-89598676D01*
X132570761Y-89389152D02*
X132380285Y-89389152D01*
X132361238Y-89579628D01*
X132380285Y-89560580D01*
X132418380Y-89541533D01*
X132513619Y-89541533D01*
X132551714Y-89560580D01*
X132570761Y-89579628D01*
X132589809Y-89617723D01*
X132589809Y-89712961D01*
X132570761Y-89751057D01*
X132551714Y-89770104D01*
X132513619Y-89789152D01*
X132418380Y-89789152D01*
X132380285Y-89770104D01*
X132361238Y-89751057D01*
X132970761Y-89789152D02*
X132742190Y-89789152D01*
X132856476Y-89789152D02*
X132856476Y-89389152D01*
X132818380Y-89446295D01*
X132780285Y-89484390D01*
X132742190Y-89503438D01*
X132138857Y-85409152D02*
X132005523Y-85218676D01*
X131910285Y-85409152D02*
X131910285Y-85009152D01*
X132062666Y-85009152D01*
X132100761Y-85028200D01*
X132119809Y-85047247D01*
X132138857Y-85085342D01*
X132138857Y-85142485D01*
X132119809Y-85180580D01*
X132100761Y-85199628D01*
X132062666Y-85218676D01*
X131910285Y-85218676D01*
X132500761Y-85009152D02*
X132310285Y-85009152D01*
X132291238Y-85199628D01*
X132310285Y-85180580D01*
X132348380Y-85161533D01*
X132443619Y-85161533D01*
X132481714Y-85180580D01*
X132500761Y-85199628D01*
X132519809Y-85237723D01*
X132519809Y-85332961D01*
X132500761Y-85371057D01*
X132481714Y-85390104D01*
X132443619Y-85409152D01*
X132348380Y-85409152D01*
X132310285Y-85390104D01*
X132291238Y-85371057D01*
X132881714Y-85009152D02*
X132691238Y-85009152D01*
X132672190Y-85199628D01*
X132691238Y-85180580D01*
X132729333Y-85161533D01*
X132824571Y-85161533D01*
X132862666Y-85180580D01*
X132881714Y-85199628D01*
X132900761Y-85237723D01*
X132900761Y-85332961D01*
X132881714Y-85371057D01*
X132862666Y-85390104D01*
X132824571Y-85409152D01*
X132729333Y-85409152D01*
X132691238Y-85390104D01*
X132672190Y-85371057D01*
X115798757Y-64258352D02*
X115665423Y-64067876D01*
X115570185Y-64258352D02*
X115570185Y-63858352D01*
X115722566Y-63858352D01*
X115760661Y-63877400D01*
X115779709Y-63896447D01*
X115798757Y-63934542D01*
X115798757Y-63991685D01*
X115779709Y-64029780D01*
X115760661Y-64048828D01*
X115722566Y-64067876D01*
X115570185Y-64067876D01*
X116141614Y-63991685D02*
X116141614Y-64258352D01*
X116046376Y-63839304D02*
X115951138Y-64125019D01*
X116198757Y-64125019D01*
X116313042Y-63858352D02*
X116560661Y-63858352D01*
X116427328Y-64010733D01*
X116484471Y-64010733D01*
X116522566Y-64029780D01*
X116541614Y-64048828D01*
X116560661Y-64086923D01*
X116560661Y-64182161D01*
X116541614Y-64220257D01*
X116522566Y-64239304D01*
X116484471Y-64258352D01*
X116370185Y-64258352D01*
X116332090Y-64239304D01*
X116313042Y-64220257D01*
X134647757Y-87406152D02*
X134514423Y-87215676D01*
X134419185Y-87406152D02*
X134419185Y-87006152D01*
X134571566Y-87006152D01*
X134609661Y-87025200D01*
X134628709Y-87044247D01*
X134647757Y-87082342D01*
X134647757Y-87139485D01*
X134628709Y-87177580D01*
X134609661Y-87196628D01*
X134571566Y-87215676D01*
X134419185Y-87215676D01*
X135009661Y-87006152D02*
X134819185Y-87006152D01*
X134800138Y-87196628D01*
X134819185Y-87177580D01*
X134857280Y-87158533D01*
X134952519Y-87158533D01*
X134990614Y-87177580D01*
X135009661Y-87196628D01*
X135028709Y-87234723D01*
X135028709Y-87329961D01*
X135009661Y-87368057D01*
X134990614Y-87387104D01*
X134952519Y-87406152D01*
X134857280Y-87406152D01*
X134819185Y-87387104D01*
X134800138Y-87368057D01*
X135162042Y-87006152D02*
X135409661Y-87006152D01*
X135276328Y-87158533D01*
X135333471Y-87158533D01*
X135371566Y-87177580D01*
X135390614Y-87196628D01*
X135409661Y-87234723D01*
X135409661Y-87329961D01*
X135390614Y-87368057D01*
X135371566Y-87387104D01*
X135333471Y-87406152D01*
X135219185Y-87406152D01*
X135181090Y-87387104D01*
X135162042Y-87368057D01*
X134660457Y-88980952D02*
X134527123Y-88790476D01*
X134431885Y-88980952D02*
X134431885Y-88580952D01*
X134584266Y-88580952D01*
X134622361Y-88600000D01*
X134641409Y-88619047D01*
X134660457Y-88657142D01*
X134660457Y-88714285D01*
X134641409Y-88752380D01*
X134622361Y-88771428D01*
X134584266Y-88790476D01*
X134431885Y-88790476D01*
X135022361Y-88580952D02*
X134831885Y-88580952D01*
X134812838Y-88771428D01*
X134831885Y-88752380D01*
X134869980Y-88733333D01*
X134965219Y-88733333D01*
X135003314Y-88752380D01*
X135022361Y-88771428D01*
X135041409Y-88809523D01*
X135041409Y-88904761D01*
X135022361Y-88942857D01*
X135003314Y-88961904D01*
X134965219Y-88980952D01*
X134869980Y-88980952D01*
X134831885Y-88961904D01*
X134812838Y-88942857D01*
X135193790Y-88619047D02*
X135212838Y-88600000D01*
X135250933Y-88580952D01*
X135346171Y-88580952D01*
X135384266Y-88600000D01*
X135403314Y-88619047D01*
X135422361Y-88657142D01*
X135422361Y-88695238D01*
X135403314Y-88752380D01*
X135174742Y-88980952D01*
X135422361Y-88980952D01*
X132218857Y-90669152D02*
X132085523Y-90478676D01*
X131990285Y-90669152D02*
X131990285Y-90269152D01*
X132142666Y-90269152D01*
X132180761Y-90288200D01*
X132199809Y-90307247D01*
X132218857Y-90345342D01*
X132218857Y-90402485D01*
X132199809Y-90440580D01*
X132180761Y-90459628D01*
X132142666Y-90478676D01*
X131990285Y-90478676D01*
X132580761Y-90269152D02*
X132390285Y-90269152D01*
X132371238Y-90459628D01*
X132390285Y-90440580D01*
X132428380Y-90421533D01*
X132523619Y-90421533D01*
X132561714Y-90440580D01*
X132580761Y-90459628D01*
X132599809Y-90497723D01*
X132599809Y-90592961D01*
X132580761Y-90631057D01*
X132561714Y-90650104D01*
X132523619Y-90669152D01*
X132428380Y-90669152D01*
X132390285Y-90650104D01*
X132371238Y-90631057D01*
X132847428Y-90269152D02*
X132885523Y-90269152D01*
X132923619Y-90288200D01*
X132942666Y-90307247D01*
X132961714Y-90345342D01*
X132980761Y-90421533D01*
X132980761Y-90516771D01*
X132961714Y-90592961D01*
X132942666Y-90631057D01*
X132923619Y-90650104D01*
X132885523Y-90669152D01*
X132847428Y-90669152D01*
X132809333Y-90650104D01*
X132790285Y-90631057D01*
X132771238Y-90592961D01*
X132752190Y-90516771D01*
X132752190Y-90421533D01*
X132771238Y-90345342D01*
X132790285Y-90307247D01*
X132809333Y-90288200D01*
X132847428Y-90269152D01*
X134660457Y-91508252D02*
X134527123Y-91317776D01*
X134431885Y-91508252D02*
X134431885Y-91108252D01*
X134584266Y-91108252D01*
X134622361Y-91127300D01*
X134641409Y-91146347D01*
X134660457Y-91184442D01*
X134660457Y-91241585D01*
X134641409Y-91279680D01*
X134622361Y-91298728D01*
X134584266Y-91317776D01*
X134431885Y-91317776D01*
X135003314Y-91241585D02*
X135003314Y-91508252D01*
X134908076Y-91089204D02*
X134812838Y-91374919D01*
X135060457Y-91374919D01*
X135231885Y-91508252D02*
X135308076Y-91508252D01*
X135346171Y-91489204D01*
X135365219Y-91470157D01*
X135403314Y-91413014D01*
X135422361Y-91336823D01*
X135422361Y-91184442D01*
X135403314Y-91146347D01*
X135384266Y-91127300D01*
X135346171Y-91108252D01*
X135269980Y-91108252D01*
X135231885Y-91127300D01*
X135212838Y-91146347D01*
X135193790Y-91184442D01*
X135193790Y-91279680D01*
X135212838Y-91317776D01*
X135231885Y-91336823D01*
X135269980Y-91355871D01*
X135346171Y-91355871D01*
X135384266Y-91336823D01*
X135403314Y-91317776D01*
X135422361Y-91279680D01*
X133009457Y-93032252D02*
X132876123Y-92841776D01*
X132780885Y-93032252D02*
X132780885Y-92632252D01*
X132933266Y-92632252D01*
X132971361Y-92651300D01*
X132990409Y-92670347D01*
X133009457Y-92708442D01*
X133009457Y-92765585D01*
X132990409Y-92803680D01*
X132971361Y-92822728D01*
X132933266Y-92841776D01*
X132780885Y-92841776D01*
X133352314Y-92765585D02*
X133352314Y-93032252D01*
X133257076Y-92613204D02*
X133161838Y-92898919D01*
X133409457Y-92898919D01*
X133618980Y-92803680D02*
X133580885Y-92784633D01*
X133561838Y-92765585D01*
X133542790Y-92727490D01*
X133542790Y-92708442D01*
X133561838Y-92670347D01*
X133580885Y-92651300D01*
X133618980Y-92632252D01*
X133695171Y-92632252D01*
X133733266Y-92651300D01*
X133752314Y-92670347D01*
X133771361Y-92708442D01*
X133771361Y-92727490D01*
X133752314Y-92765585D01*
X133733266Y-92784633D01*
X133695171Y-92803680D01*
X133618980Y-92803680D01*
X133580885Y-92822728D01*
X133561838Y-92841776D01*
X133542790Y-92879871D01*
X133542790Y-92956061D01*
X133561838Y-92994157D01*
X133580885Y-93013204D01*
X133618980Y-93032252D01*
X133695171Y-93032252D01*
X133733266Y-93013204D01*
X133752314Y-92994157D01*
X133771361Y-92956061D01*
X133771361Y-92879871D01*
X133752314Y-92841776D01*
X133733266Y-92822728D01*
X133695171Y-92803680D01*
X115798757Y-68258352D02*
X115665423Y-68067876D01*
X115570185Y-68258352D02*
X115570185Y-67858352D01*
X115722566Y-67858352D01*
X115760661Y-67877400D01*
X115779709Y-67896447D01*
X115798757Y-67934542D01*
X115798757Y-67991685D01*
X115779709Y-68029780D01*
X115760661Y-68048828D01*
X115722566Y-68067876D01*
X115570185Y-68067876D01*
X116141614Y-67991685D02*
X116141614Y-68258352D01*
X116046376Y-67839304D02*
X115951138Y-68125019D01*
X116198757Y-68125019D01*
X116313042Y-67858352D02*
X116579709Y-67858352D01*
X116408280Y-68258352D01*
X115798757Y-69258352D02*
X115665423Y-69067876D01*
X115570185Y-69258352D02*
X115570185Y-68858352D01*
X115722566Y-68858352D01*
X115760661Y-68877400D01*
X115779709Y-68896447D01*
X115798757Y-68934542D01*
X115798757Y-68991685D01*
X115779709Y-69029780D01*
X115760661Y-69048828D01*
X115722566Y-69067876D01*
X115570185Y-69067876D01*
X116141614Y-68991685D02*
X116141614Y-69258352D01*
X116046376Y-68839304D02*
X115951138Y-69125019D01*
X116198757Y-69125019D01*
X116522566Y-68858352D02*
X116446376Y-68858352D01*
X116408280Y-68877400D01*
X116389233Y-68896447D01*
X116351138Y-68953590D01*
X116332090Y-69029780D01*
X116332090Y-69182161D01*
X116351138Y-69220257D01*
X116370185Y-69239304D01*
X116408280Y-69258352D01*
X116484471Y-69258352D01*
X116522566Y-69239304D01*
X116541614Y-69220257D01*
X116560661Y-69182161D01*
X116560661Y-69086923D01*
X116541614Y-69048828D01*
X116522566Y-69029780D01*
X116484471Y-69010733D01*
X116408280Y-69010733D01*
X116370185Y-69029780D01*
X116351138Y-69048828D01*
X116332090Y-69086923D01*
X115798757Y-67258352D02*
X115665423Y-67067876D01*
X115570185Y-67258352D02*
X115570185Y-66858352D01*
X115722566Y-66858352D01*
X115760661Y-66877400D01*
X115779709Y-66896447D01*
X115798757Y-66934542D01*
X115798757Y-66991685D01*
X115779709Y-67029780D01*
X115760661Y-67048828D01*
X115722566Y-67067876D01*
X115570185Y-67067876D01*
X116141614Y-66991685D02*
X116141614Y-67258352D01*
X116046376Y-66839304D02*
X115951138Y-67125019D01*
X116198757Y-67125019D01*
X116522566Y-66991685D02*
X116522566Y-67258352D01*
X116427328Y-66839304D02*
X116332090Y-67125019D01*
X116579709Y-67125019D01*
X115798757Y-66258352D02*
X115665423Y-66067876D01*
X115570185Y-66258352D02*
X115570185Y-65858352D01*
X115722566Y-65858352D01*
X115760661Y-65877400D01*
X115779709Y-65896447D01*
X115798757Y-65934542D01*
X115798757Y-65991685D01*
X115779709Y-66029780D01*
X115760661Y-66048828D01*
X115722566Y-66067876D01*
X115570185Y-66067876D01*
X116141614Y-65991685D02*
X116141614Y-66258352D01*
X116046376Y-65839304D02*
X115951138Y-66125019D01*
X116198757Y-66125019D01*
X116541614Y-65858352D02*
X116351138Y-65858352D01*
X116332090Y-66048828D01*
X116351138Y-66029780D01*
X116389233Y-66010733D01*
X116484471Y-66010733D01*
X116522566Y-66029780D01*
X116541614Y-66048828D01*
X116560661Y-66086923D01*
X116560661Y-66182161D01*
X116541614Y-66220257D01*
X116522566Y-66239304D01*
X116484471Y-66258352D01*
X116389233Y-66258352D01*
X116351138Y-66239304D01*
X116332090Y-66220257D01*
X116189233Y-63258352D02*
X116055900Y-63067876D01*
X115960661Y-63258352D02*
X115960661Y-62858352D01*
X116113042Y-62858352D01*
X116151138Y-62877400D01*
X116170185Y-62896447D01*
X116189233Y-62934542D01*
X116189233Y-62991685D01*
X116170185Y-63029780D01*
X116151138Y-63048828D01*
X116113042Y-63067876D01*
X115960661Y-63067876D01*
X116322566Y-62858352D02*
X116570185Y-62858352D01*
X116436852Y-63010733D01*
X116493995Y-63010733D01*
X116532090Y-63029780D01*
X116551138Y-63048828D01*
X116570185Y-63086923D01*
X116570185Y-63182161D01*
X116551138Y-63220257D01*
X116532090Y-63239304D01*
X116493995Y-63258352D01*
X116379709Y-63258352D01*
X116341614Y-63239304D01*
X116322566Y-63220257D01*
X115798757Y-65158352D02*
X115665423Y-64967876D01*
X115570185Y-65158352D02*
X115570185Y-64758352D01*
X115722566Y-64758352D01*
X115760661Y-64777400D01*
X115779709Y-64796447D01*
X115798757Y-64834542D01*
X115798757Y-64891685D01*
X115779709Y-64929780D01*
X115760661Y-64948828D01*
X115722566Y-64967876D01*
X115570185Y-64967876D01*
X116141614Y-64891685D02*
X116141614Y-65158352D01*
X116046376Y-64739304D02*
X115951138Y-65025019D01*
X116198757Y-65025019D01*
X116332090Y-64796447D02*
X116351138Y-64777400D01*
X116389233Y-64758352D01*
X116484471Y-64758352D01*
X116522566Y-64777400D01*
X116541614Y-64796447D01*
X116560661Y-64834542D01*
X116560661Y-64872638D01*
X116541614Y-64929780D01*
X116313042Y-65158352D01*
X116560661Y-65158352D01*
X115798757Y-62258352D02*
X115665423Y-62067876D01*
X115570185Y-62258352D02*
X115570185Y-61858352D01*
X115722566Y-61858352D01*
X115760661Y-61877400D01*
X115779709Y-61896447D01*
X115798757Y-61934542D01*
X115798757Y-61991685D01*
X115779709Y-62029780D01*
X115760661Y-62048828D01*
X115722566Y-62067876D01*
X115570185Y-62067876D01*
X115932090Y-61858352D02*
X116179709Y-61858352D01*
X116046376Y-62010733D01*
X116103519Y-62010733D01*
X116141614Y-62029780D01*
X116160661Y-62048828D01*
X116179709Y-62086923D01*
X116179709Y-62182161D01*
X116160661Y-62220257D01*
X116141614Y-62239304D01*
X116103519Y-62258352D01*
X115989233Y-62258352D01*
X115951138Y-62239304D01*
X115932090Y-62220257D01*
X116313042Y-61858352D02*
X116560661Y-61858352D01*
X116427328Y-62010733D01*
X116484471Y-62010733D01*
X116522566Y-62029780D01*
X116541614Y-62048828D01*
X116560661Y-62086923D01*
X116560661Y-62182161D01*
X116541614Y-62220257D01*
X116522566Y-62239304D01*
X116484471Y-62258352D01*
X116370185Y-62258352D01*
X116332090Y-62239304D01*
X116313042Y-62220257D01*
X119268033Y-92956057D02*
X119248985Y-92975104D01*
X119191842Y-92994152D01*
X119153747Y-92994152D01*
X119096604Y-92975104D01*
X119058509Y-92937009D01*
X119039461Y-92898914D01*
X119020414Y-92822723D01*
X119020414Y-92765580D01*
X119039461Y-92689390D01*
X119058509Y-92651295D01*
X119096604Y-92613200D01*
X119153747Y-92594152D01*
X119191842Y-92594152D01*
X119248985Y-92613200D01*
X119268033Y-92632247D01*
X119420414Y-92632247D02*
X119439461Y-92613200D01*
X119477557Y-92594152D01*
X119572795Y-92594152D01*
X119610890Y-92613200D01*
X119629938Y-92632247D01*
X119648985Y-92670342D01*
X119648985Y-92708438D01*
X119629938Y-92765580D01*
X119401366Y-92994152D01*
X119648985Y-92994152D01*
X129089233Y-85620257D02*
X129070185Y-85639304D01*
X129013042Y-85658352D01*
X128974947Y-85658352D01*
X128917804Y-85639304D01*
X128879709Y-85601209D01*
X128860661Y-85563114D01*
X128841614Y-85486923D01*
X128841614Y-85429780D01*
X128860661Y-85353590D01*
X128879709Y-85315495D01*
X128917804Y-85277400D01*
X128974947Y-85258352D01*
X129013042Y-85258352D01*
X129070185Y-85277400D01*
X129089233Y-85296447D01*
X129222566Y-85258352D02*
X129489233Y-85258352D01*
X129317804Y-85658352D01*
X126289233Y-87720257D02*
X126270185Y-87739304D01*
X126213042Y-87758352D01*
X126174947Y-87758352D01*
X126117804Y-87739304D01*
X126079709Y-87701209D01*
X126060661Y-87663114D01*
X126041614Y-87586923D01*
X126041614Y-87529780D01*
X126060661Y-87453590D01*
X126079709Y-87415495D01*
X126117804Y-87377400D01*
X126174947Y-87358352D01*
X126213042Y-87358352D01*
X126270185Y-87377400D01*
X126289233Y-87396447D01*
X126517804Y-87529780D02*
X126479709Y-87510733D01*
X126460661Y-87491685D01*
X126441614Y-87453590D01*
X126441614Y-87434542D01*
X126460661Y-87396447D01*
X126479709Y-87377400D01*
X126517804Y-87358352D01*
X126593995Y-87358352D01*
X126632090Y-87377400D01*
X126651138Y-87396447D01*
X126670185Y-87434542D01*
X126670185Y-87453590D01*
X126651138Y-87491685D01*
X126632090Y-87510733D01*
X126593995Y-87529780D01*
X126517804Y-87529780D01*
X126479709Y-87548828D01*
X126460661Y-87567876D01*
X126441614Y-87605971D01*
X126441614Y-87682161D01*
X126460661Y-87720257D01*
X126479709Y-87739304D01*
X126517804Y-87758352D01*
X126593995Y-87758352D01*
X126632090Y-87739304D01*
X126651138Y-87720257D01*
X126670185Y-87682161D01*
X126670185Y-87605971D01*
X126651138Y-87567876D01*
X126632090Y-87548828D01*
X126593995Y-87529780D01*
X129398757Y-82934542D02*
X129417804Y-82953590D01*
X129436852Y-83010733D01*
X129436852Y-83048828D01*
X129417804Y-83105971D01*
X129379709Y-83144066D01*
X129341614Y-83163114D01*
X129265423Y-83182161D01*
X129208280Y-83182161D01*
X129132090Y-83163114D01*
X129093995Y-83144066D01*
X129055900Y-83105971D01*
X129036852Y-83048828D01*
X129036852Y-83010733D01*
X129055900Y-82953590D01*
X129074947Y-82934542D01*
X129074947Y-82782161D02*
X129055900Y-82763114D01*
X129036852Y-82725019D01*
X129036852Y-82629780D01*
X129055900Y-82591685D01*
X129074947Y-82572638D01*
X129113042Y-82553590D01*
X129151138Y-82553590D01*
X129208280Y-82572638D01*
X129436852Y-82801209D01*
X129436852Y-82553590D01*
X129036852Y-82210733D02*
X129036852Y-82286923D01*
X129055900Y-82325019D01*
X129074947Y-82344066D01*
X129132090Y-82382161D01*
X129208280Y-82401209D01*
X129360661Y-82401209D01*
X129398757Y-82382161D01*
X129417804Y-82363114D01*
X129436852Y-82325019D01*
X129436852Y-82248828D01*
X129417804Y-82210733D01*
X129398757Y-82191685D01*
X129360661Y-82172638D01*
X129265423Y-82172638D01*
X129227328Y-82191685D01*
X129208280Y-82210733D01*
X129189233Y-82248828D01*
X129189233Y-82325019D01*
X129208280Y-82363114D01*
X129227328Y-82382161D01*
X129265423Y-82401209D01*
X126098757Y-92820257D02*
X126079709Y-92839304D01*
X126022566Y-92858352D01*
X125984471Y-92858352D01*
X125927328Y-92839304D01*
X125889233Y-92801209D01*
X125870185Y-92763114D01*
X125851138Y-92686923D01*
X125851138Y-92629780D01*
X125870185Y-92553590D01*
X125889233Y-92515495D01*
X125927328Y-92477400D01*
X125984471Y-92458352D01*
X126022566Y-92458352D01*
X126079709Y-92477400D01*
X126098757Y-92496447D01*
X126251138Y-92496447D02*
X126270185Y-92477400D01*
X126308280Y-92458352D01*
X126403519Y-92458352D01*
X126441614Y-92477400D01*
X126460661Y-92496447D01*
X126479709Y-92534542D01*
X126479709Y-92572638D01*
X126460661Y-92629780D01*
X126232090Y-92858352D01*
X126479709Y-92858352D01*
X126841614Y-92458352D02*
X126651138Y-92458352D01*
X126632090Y-92648828D01*
X126651138Y-92629780D01*
X126689233Y-92610733D01*
X126784471Y-92610733D01*
X126822566Y-92629780D01*
X126841614Y-92648828D01*
X126860661Y-92686923D01*
X126860661Y-92782161D01*
X126841614Y-92820257D01*
X126822566Y-92839304D01*
X126784471Y-92858352D01*
X126689233Y-92858352D01*
X126651138Y-92839304D01*
X126632090Y-92820257D01*
X126098757Y-90720257D02*
X126079709Y-90739304D01*
X126022566Y-90758352D01*
X125984471Y-90758352D01*
X125927328Y-90739304D01*
X125889233Y-90701209D01*
X125870185Y-90663114D01*
X125851138Y-90586923D01*
X125851138Y-90529780D01*
X125870185Y-90453590D01*
X125889233Y-90415495D01*
X125927328Y-90377400D01*
X125984471Y-90358352D01*
X126022566Y-90358352D01*
X126079709Y-90377400D01*
X126098757Y-90396447D01*
X126251138Y-90396447D02*
X126270185Y-90377400D01*
X126308280Y-90358352D01*
X126403519Y-90358352D01*
X126441614Y-90377400D01*
X126460661Y-90396447D01*
X126479709Y-90434542D01*
X126479709Y-90472638D01*
X126460661Y-90529780D01*
X126232090Y-90758352D01*
X126479709Y-90758352D01*
X126822566Y-90491685D02*
X126822566Y-90758352D01*
X126727328Y-90339304D02*
X126632090Y-90625019D01*
X126879709Y-90625019D01*
X126098757Y-88720257D02*
X126079709Y-88739304D01*
X126022566Y-88758352D01*
X125984471Y-88758352D01*
X125927328Y-88739304D01*
X125889233Y-88701209D01*
X125870185Y-88663114D01*
X125851138Y-88586923D01*
X125851138Y-88529780D01*
X125870185Y-88453590D01*
X125889233Y-88415495D01*
X125927328Y-88377400D01*
X125984471Y-88358352D01*
X126022566Y-88358352D01*
X126079709Y-88377400D01*
X126098757Y-88396447D01*
X126251138Y-88396447D02*
X126270185Y-88377400D01*
X126308280Y-88358352D01*
X126403519Y-88358352D01*
X126441614Y-88377400D01*
X126460661Y-88396447D01*
X126479709Y-88434542D01*
X126479709Y-88472638D01*
X126460661Y-88529780D01*
X126232090Y-88758352D01*
X126479709Y-88758352D01*
X126613042Y-88358352D02*
X126860661Y-88358352D01*
X126727328Y-88510733D01*
X126784471Y-88510733D01*
X126822566Y-88529780D01*
X126841614Y-88548828D01*
X126860661Y-88586923D01*
X126860661Y-88682161D01*
X126841614Y-88720257D01*
X126822566Y-88739304D01*
X126784471Y-88758352D01*
X126670185Y-88758352D01*
X126632090Y-88739304D01*
X126613042Y-88720257D01*
X126098757Y-86720257D02*
X126079709Y-86739304D01*
X126022566Y-86758352D01*
X125984471Y-86758352D01*
X125927328Y-86739304D01*
X125889233Y-86701209D01*
X125870185Y-86663114D01*
X125851138Y-86586923D01*
X125851138Y-86529780D01*
X125870185Y-86453590D01*
X125889233Y-86415495D01*
X125927328Y-86377400D01*
X125984471Y-86358352D01*
X126022566Y-86358352D01*
X126079709Y-86377400D01*
X126098757Y-86396447D01*
X126251138Y-86396447D02*
X126270185Y-86377400D01*
X126308280Y-86358352D01*
X126403519Y-86358352D01*
X126441614Y-86377400D01*
X126460661Y-86396447D01*
X126479709Y-86434542D01*
X126479709Y-86472638D01*
X126460661Y-86529780D01*
X126232090Y-86758352D01*
X126479709Y-86758352D01*
X126632090Y-86396447D02*
X126651138Y-86377400D01*
X126689233Y-86358352D01*
X126784471Y-86358352D01*
X126822566Y-86377400D01*
X126841614Y-86396447D01*
X126860661Y-86434542D01*
X126860661Y-86472638D01*
X126841614Y-86529780D01*
X126613042Y-86758352D01*
X126860661Y-86758352D01*
X126098757Y-91720257D02*
X126079709Y-91739304D01*
X126022566Y-91758352D01*
X125984471Y-91758352D01*
X125927328Y-91739304D01*
X125889233Y-91701209D01*
X125870185Y-91663114D01*
X125851138Y-91586923D01*
X125851138Y-91529780D01*
X125870185Y-91453590D01*
X125889233Y-91415495D01*
X125927328Y-91377400D01*
X125984471Y-91358352D01*
X126022566Y-91358352D01*
X126079709Y-91377400D01*
X126098757Y-91396447D01*
X126251138Y-91396447D02*
X126270185Y-91377400D01*
X126308280Y-91358352D01*
X126403519Y-91358352D01*
X126441614Y-91377400D01*
X126460661Y-91396447D01*
X126479709Y-91434542D01*
X126479709Y-91472638D01*
X126460661Y-91529780D01*
X126232090Y-91758352D01*
X126479709Y-91758352D01*
X126860661Y-91758352D02*
X126632090Y-91758352D01*
X126746376Y-91758352D02*
X126746376Y-91358352D01*
X126708280Y-91415495D01*
X126670185Y-91453590D01*
X126632090Y-91472638D01*
X126098757Y-89720257D02*
X126079709Y-89739304D01*
X126022566Y-89758352D01*
X125984471Y-89758352D01*
X125927328Y-89739304D01*
X125889233Y-89701209D01*
X125870185Y-89663114D01*
X125851138Y-89586923D01*
X125851138Y-89529780D01*
X125870185Y-89453590D01*
X125889233Y-89415495D01*
X125927328Y-89377400D01*
X125984471Y-89358352D01*
X126022566Y-89358352D01*
X126079709Y-89377400D01*
X126098757Y-89396447D01*
X126251138Y-89396447D02*
X126270185Y-89377400D01*
X126308280Y-89358352D01*
X126403519Y-89358352D01*
X126441614Y-89377400D01*
X126460661Y-89396447D01*
X126479709Y-89434542D01*
X126479709Y-89472638D01*
X126460661Y-89529780D01*
X126232090Y-89758352D01*
X126479709Y-89758352D01*
X126727328Y-89358352D02*
X126765423Y-89358352D01*
X126803519Y-89377400D01*
X126822566Y-89396447D01*
X126841614Y-89434542D01*
X126860661Y-89510733D01*
X126860661Y-89605971D01*
X126841614Y-89682161D01*
X126822566Y-89720257D01*
X126803519Y-89739304D01*
X126765423Y-89758352D01*
X126727328Y-89758352D01*
X126689233Y-89739304D01*
X126670185Y-89720257D01*
X126651138Y-89682161D01*
X126632090Y-89605971D01*
X126632090Y-89510733D01*
X126651138Y-89434542D01*
X126670185Y-89396447D01*
X126689233Y-89377400D01*
X126727328Y-89358352D01*
X124159233Y-85240257D02*
X124140185Y-85259304D01*
X124083042Y-85278352D01*
X124044947Y-85278352D01*
X123987804Y-85259304D01*
X123949709Y-85221209D01*
X123930661Y-85183114D01*
X123911614Y-85106923D01*
X123911614Y-85049780D01*
X123930661Y-84973590D01*
X123949709Y-84935495D01*
X123987804Y-84897400D01*
X124044947Y-84878352D01*
X124083042Y-84878352D01*
X124140185Y-84897400D01*
X124159233Y-84916447D01*
X124292566Y-84878352D02*
X124540185Y-84878352D01*
X124406852Y-85030733D01*
X124463995Y-85030733D01*
X124502090Y-85049780D01*
X124521138Y-85068828D01*
X124540185Y-85106923D01*
X124540185Y-85202161D01*
X124521138Y-85240257D01*
X124502090Y-85259304D01*
X124463995Y-85278352D01*
X124349709Y-85278352D01*
X124311614Y-85259304D01*
X124292566Y-85240257D01*
X122608757Y-61228352D02*
X122475423Y-61037876D01*
X122380185Y-61228352D02*
X122380185Y-60828352D01*
X122532566Y-60828352D01*
X122570661Y-60847400D01*
X122589709Y-60866447D01*
X122608757Y-60904542D01*
X122608757Y-60961685D01*
X122589709Y-60999780D01*
X122570661Y-61018828D01*
X122532566Y-61037876D01*
X122380185Y-61037876D01*
X122761138Y-60866447D02*
X122780185Y-60847400D01*
X122818280Y-60828352D01*
X122913519Y-60828352D01*
X122951614Y-60847400D01*
X122970661Y-60866447D01*
X122989709Y-60904542D01*
X122989709Y-60942638D01*
X122970661Y-60999780D01*
X122742090Y-61228352D01*
X122989709Y-61228352D01*
X123123042Y-60828352D02*
X123370661Y-60828352D01*
X123237328Y-60980733D01*
X123294471Y-60980733D01*
X123332566Y-60999780D01*
X123351614Y-61018828D01*
X123370661Y-61056923D01*
X123370661Y-61152161D01*
X123351614Y-61190257D01*
X123332566Y-61209304D01*
X123294471Y-61228352D01*
X123180185Y-61228352D01*
X123142090Y-61209304D01*
X123123042Y-61190257D01*
X118747357Y-94365752D02*
X118614023Y-94175276D01*
X118518785Y-94365752D02*
X118518785Y-93965752D01*
X118671166Y-93965752D01*
X118709261Y-93984800D01*
X118728309Y-94003847D01*
X118747357Y-94041942D01*
X118747357Y-94099085D01*
X118728309Y-94137180D01*
X118709261Y-94156228D01*
X118671166Y-94175276D01*
X118518785Y-94175276D01*
X118899738Y-94003847D02*
X118918785Y-93984800D01*
X118956880Y-93965752D01*
X119052119Y-93965752D01*
X119090214Y-93984800D01*
X119109261Y-94003847D01*
X119128309Y-94041942D01*
X119128309Y-94080038D01*
X119109261Y-94137180D01*
X118880690Y-94365752D01*
X119128309Y-94365752D01*
X119471166Y-94099085D02*
X119471166Y-94365752D01*
X119375928Y-93946704D02*
X119280690Y-94232419D01*
X119528309Y-94232419D01*
X134776852Y-67394542D02*
X134586376Y-67527876D01*
X134776852Y-67623114D02*
X134376852Y-67623114D01*
X134376852Y-67470733D01*
X134395900Y-67432638D01*
X134414947Y-67413590D01*
X134453042Y-67394542D01*
X134510185Y-67394542D01*
X134548280Y-67413590D01*
X134567328Y-67432638D01*
X134586376Y-67470733D01*
X134586376Y-67623114D01*
X134414947Y-67242161D02*
X134395900Y-67223114D01*
X134376852Y-67185019D01*
X134376852Y-67089780D01*
X134395900Y-67051685D01*
X134414947Y-67032638D01*
X134453042Y-67013590D01*
X134491138Y-67013590D01*
X134548280Y-67032638D01*
X134776852Y-67261209D01*
X134776852Y-67013590D01*
X134376852Y-66651685D02*
X134376852Y-66842161D01*
X134567328Y-66861209D01*
X134548280Y-66842161D01*
X134529233Y-66804066D01*
X134529233Y-66708828D01*
X134548280Y-66670733D01*
X134567328Y-66651685D01*
X134605423Y-66632638D01*
X134700661Y-66632638D01*
X134738757Y-66651685D01*
X134757804Y-66670733D01*
X134776852Y-66708828D01*
X134776852Y-66804066D01*
X134757804Y-66842161D01*
X134738757Y-66861209D01*
X124487757Y-83410652D02*
X124354423Y-83220176D01*
X124259185Y-83410652D02*
X124259185Y-83010652D01*
X124411566Y-83010652D01*
X124449661Y-83029700D01*
X124468709Y-83048747D01*
X124487757Y-83086842D01*
X124487757Y-83143985D01*
X124468709Y-83182080D01*
X124449661Y-83201128D01*
X124411566Y-83220176D01*
X124259185Y-83220176D01*
X124640138Y-83048747D02*
X124659185Y-83029700D01*
X124697280Y-83010652D01*
X124792519Y-83010652D01*
X124830614Y-83029700D01*
X124849661Y-83048747D01*
X124868709Y-83086842D01*
X124868709Y-83124938D01*
X124849661Y-83182080D01*
X124621090Y-83410652D01*
X124868709Y-83410652D01*
X125211566Y-83010652D02*
X125135376Y-83010652D01*
X125097280Y-83029700D01*
X125078233Y-83048747D01*
X125040138Y-83105890D01*
X125021090Y-83182080D01*
X125021090Y-83334461D01*
X125040138Y-83372557D01*
X125059185Y-83391604D01*
X125097280Y-83410652D01*
X125173471Y-83410652D01*
X125211566Y-83391604D01*
X125230614Y-83372557D01*
X125249661Y-83334461D01*
X125249661Y-83239223D01*
X125230614Y-83201128D01*
X125211566Y-83182080D01*
X125173471Y-83163033D01*
X125097280Y-83163033D01*
X125059185Y-83182080D01*
X125040138Y-83201128D01*
X125021090Y-83239223D01*
X138229157Y-76674652D02*
X138095823Y-76484176D01*
X138000585Y-76674652D02*
X138000585Y-76274652D01*
X138152966Y-76274652D01*
X138191061Y-76293700D01*
X138210109Y-76312747D01*
X138229157Y-76350842D01*
X138229157Y-76407985D01*
X138210109Y-76446080D01*
X138191061Y-76465128D01*
X138152966Y-76484176D01*
X138000585Y-76484176D01*
X138381538Y-76312747D02*
X138400585Y-76293700D01*
X138438680Y-76274652D01*
X138533919Y-76274652D01*
X138572014Y-76293700D01*
X138591061Y-76312747D01*
X138610109Y-76350842D01*
X138610109Y-76388938D01*
X138591061Y-76446080D01*
X138362490Y-76674652D01*
X138610109Y-76674652D01*
X138743442Y-76274652D02*
X139010109Y-76274652D01*
X138838680Y-76674652D01*
X122698757Y-92958352D02*
X122565423Y-92767876D01*
X122470185Y-92958352D02*
X122470185Y-92558352D01*
X122622566Y-92558352D01*
X122660661Y-92577400D01*
X122679709Y-92596447D01*
X122698757Y-92634542D01*
X122698757Y-92691685D01*
X122679709Y-92729780D01*
X122660661Y-92748828D01*
X122622566Y-92767876D01*
X122470185Y-92767876D01*
X122851138Y-92596447D02*
X122870185Y-92577400D01*
X122908280Y-92558352D01*
X123003519Y-92558352D01*
X123041614Y-92577400D01*
X123060661Y-92596447D01*
X123079709Y-92634542D01*
X123079709Y-92672638D01*
X123060661Y-92729780D01*
X122832090Y-92958352D01*
X123079709Y-92958352D01*
X123270185Y-92958352D02*
X123346376Y-92958352D01*
X123384471Y-92939304D01*
X123403519Y-92920257D01*
X123441614Y-92863114D01*
X123460661Y-92786923D01*
X123460661Y-92634542D01*
X123441614Y-92596447D01*
X123422566Y-92577400D01*
X123384471Y-92558352D01*
X123308280Y-92558352D01*
X123270185Y-92577400D01*
X123251138Y-92596447D01*
X123232090Y-92634542D01*
X123232090Y-92729780D01*
X123251138Y-92767876D01*
X123270185Y-92786923D01*
X123308280Y-92805971D01*
X123384471Y-92805971D01*
X123422566Y-92786923D01*
X123441614Y-92767876D01*
X123460661Y-92729780D01*
X137526852Y-72994542D02*
X137336376Y-73127876D01*
X137526852Y-73223114D02*
X137126852Y-73223114D01*
X137126852Y-73070733D01*
X137145900Y-73032638D01*
X137164947Y-73013590D01*
X137203042Y-72994542D01*
X137260185Y-72994542D01*
X137298280Y-73013590D01*
X137317328Y-73032638D01*
X137336376Y-73070733D01*
X137336376Y-73223114D01*
X137126852Y-72861209D02*
X137126852Y-72613590D01*
X137279233Y-72746923D01*
X137279233Y-72689780D01*
X137298280Y-72651685D01*
X137317328Y-72632638D01*
X137355423Y-72613590D01*
X137450661Y-72613590D01*
X137488757Y-72632638D01*
X137507804Y-72651685D01*
X137526852Y-72689780D01*
X137526852Y-72804066D01*
X137507804Y-72842161D01*
X137488757Y-72861209D01*
X137126852Y-72365971D02*
X137126852Y-72327876D01*
X137145900Y-72289780D01*
X137164947Y-72270733D01*
X137203042Y-72251685D01*
X137279233Y-72232638D01*
X137374471Y-72232638D01*
X137450661Y-72251685D01*
X137488757Y-72270733D01*
X137507804Y-72289780D01*
X137526852Y-72327876D01*
X137526852Y-72365971D01*
X137507804Y-72404066D01*
X137488757Y-72423114D01*
X137450661Y-72442161D01*
X137374471Y-72461209D01*
X137279233Y-72461209D01*
X137203042Y-72442161D01*
X137164947Y-72423114D01*
X137145900Y-72404066D01*
X137126852Y-72365971D01*
X134742952Y-70946942D02*
X134552476Y-71080276D01*
X134742952Y-71175514D02*
X134342952Y-71175514D01*
X134342952Y-71023133D01*
X134362000Y-70985038D01*
X134381047Y-70965990D01*
X134419142Y-70946942D01*
X134476285Y-70946942D01*
X134514380Y-70965990D01*
X134533428Y-70985038D01*
X134552476Y-71023133D01*
X134552476Y-71175514D01*
X134342952Y-70813609D02*
X134342952Y-70565990D01*
X134495333Y-70699323D01*
X134495333Y-70642180D01*
X134514380Y-70604085D01*
X134533428Y-70585038D01*
X134571523Y-70565990D01*
X134666761Y-70565990D01*
X134704857Y-70585038D01*
X134723904Y-70604085D01*
X134742952Y-70642180D01*
X134742952Y-70756466D01*
X134723904Y-70794561D01*
X134704857Y-70813609D01*
X134476285Y-70223133D02*
X134742952Y-70223133D01*
X134323904Y-70318371D02*
X134609619Y-70413609D01*
X134609619Y-70165990D01*
X121001552Y-84116842D02*
X120811076Y-84250176D01*
X121001552Y-84345414D02*
X120601552Y-84345414D01*
X120601552Y-84193033D01*
X120620600Y-84154938D01*
X120639647Y-84135890D01*
X120677742Y-84116842D01*
X120734885Y-84116842D01*
X120772980Y-84135890D01*
X120792028Y-84154938D01*
X120811076Y-84193033D01*
X120811076Y-84345414D01*
X120601552Y-83983509D02*
X120601552Y-83735890D01*
X120753933Y-83869223D01*
X120753933Y-83812080D01*
X120772980Y-83773985D01*
X120792028Y-83754938D01*
X120830123Y-83735890D01*
X120925361Y-83735890D01*
X120963457Y-83754938D01*
X120982504Y-83773985D01*
X121001552Y-83812080D01*
X121001552Y-83926366D01*
X120982504Y-83964461D01*
X120963457Y-83983509D01*
X120601552Y-83393033D02*
X120601552Y-83469223D01*
X120620600Y-83507319D01*
X120639647Y-83526366D01*
X120696790Y-83564461D01*
X120772980Y-83583509D01*
X120925361Y-83583509D01*
X120963457Y-83564461D01*
X120982504Y-83545414D01*
X121001552Y-83507319D01*
X121001552Y-83431128D01*
X120982504Y-83393033D01*
X120963457Y-83373985D01*
X120925361Y-83354938D01*
X120830123Y-83354938D01*
X120792028Y-83373985D01*
X120772980Y-83393033D01*
X120753933Y-83431128D01*
X120753933Y-83507319D01*
X120772980Y-83545414D01*
X120792028Y-83564461D01*
X120830123Y-83583509D01*
X119439452Y-84129542D02*
X119248976Y-84262876D01*
X119439452Y-84358114D02*
X119039452Y-84358114D01*
X119039452Y-84205733D01*
X119058500Y-84167638D01*
X119077547Y-84148590D01*
X119115642Y-84129542D01*
X119172785Y-84129542D01*
X119210880Y-84148590D01*
X119229928Y-84167638D01*
X119248976Y-84205733D01*
X119248976Y-84358114D01*
X119039452Y-83996209D02*
X119039452Y-83748590D01*
X119191833Y-83881923D01*
X119191833Y-83824780D01*
X119210880Y-83786685D01*
X119229928Y-83767638D01*
X119268023Y-83748590D01*
X119363261Y-83748590D01*
X119401357Y-83767638D01*
X119420404Y-83786685D01*
X119439452Y-83824780D01*
X119439452Y-83939066D01*
X119420404Y-83977161D01*
X119401357Y-83996209D01*
X119039452Y-83615257D02*
X119039452Y-83348590D01*
X119439452Y-83520019D01*
X136489257Y-68660952D02*
X136355923Y-68470476D01*
X136260685Y-68660952D02*
X136260685Y-68260952D01*
X136413066Y-68260952D01*
X136451161Y-68280000D01*
X136470209Y-68299047D01*
X136489257Y-68337142D01*
X136489257Y-68394285D01*
X136470209Y-68432380D01*
X136451161Y-68451428D01*
X136413066Y-68470476D01*
X136260685Y-68470476D01*
X136622590Y-68260952D02*
X136870209Y-68260952D01*
X136736876Y-68413333D01*
X136794019Y-68413333D01*
X136832114Y-68432380D01*
X136851161Y-68451428D01*
X136870209Y-68489523D01*
X136870209Y-68584761D01*
X136851161Y-68622857D01*
X136832114Y-68641904D01*
X136794019Y-68660952D01*
X136679733Y-68660952D01*
X136641638Y-68641904D01*
X136622590Y-68622857D01*
X137098780Y-68432380D02*
X137060685Y-68413333D01*
X137041638Y-68394285D01*
X137022590Y-68356190D01*
X137022590Y-68337142D01*
X137041638Y-68299047D01*
X137060685Y-68280000D01*
X137098780Y-68260952D01*
X137174971Y-68260952D01*
X137213066Y-68280000D01*
X137232114Y-68299047D01*
X137251161Y-68337142D01*
X137251161Y-68356190D01*
X137232114Y-68394285D01*
X137213066Y-68413333D01*
X137174971Y-68432380D01*
X137098780Y-68432380D01*
X137060685Y-68451428D01*
X137041638Y-68470476D01*
X137022590Y-68508571D01*
X137022590Y-68584761D01*
X137041638Y-68622857D01*
X137060685Y-68641904D01*
X137098780Y-68660952D01*
X137174971Y-68660952D01*
X137213066Y-68641904D01*
X137232114Y-68622857D01*
X137251161Y-68584761D01*
X137251161Y-68508571D01*
X137232114Y-68470476D01*
X137213066Y-68451428D01*
X137174971Y-68432380D01*
X123135152Y-79240042D02*
X122944676Y-79373376D01*
X123135152Y-79468614D02*
X122735152Y-79468614D01*
X122735152Y-79316233D01*
X122754200Y-79278138D01*
X122773247Y-79259090D01*
X122811342Y-79240042D01*
X122868485Y-79240042D01*
X122906580Y-79259090D01*
X122925628Y-79278138D01*
X122944676Y-79316233D01*
X122944676Y-79468614D01*
X122735152Y-79106709D02*
X122735152Y-78859090D01*
X122887533Y-78992423D01*
X122887533Y-78935280D01*
X122906580Y-78897185D01*
X122925628Y-78878138D01*
X122963723Y-78859090D01*
X123058961Y-78859090D01*
X123097057Y-78878138D01*
X123116104Y-78897185D01*
X123135152Y-78935280D01*
X123135152Y-79049566D01*
X123116104Y-79087661D01*
X123097057Y-79106709D01*
X123135152Y-78668614D02*
X123135152Y-78592423D01*
X123116104Y-78554328D01*
X123097057Y-78535280D01*
X123039914Y-78497185D01*
X122963723Y-78478138D01*
X122811342Y-78478138D01*
X122773247Y-78497185D01*
X122754200Y-78516233D01*
X122735152Y-78554328D01*
X122735152Y-78630519D01*
X122754200Y-78668614D01*
X122773247Y-78687661D01*
X122811342Y-78706709D01*
X122906580Y-78706709D01*
X122944676Y-78687661D01*
X122963723Y-78668614D01*
X122982771Y-78630519D01*
X122982771Y-78554328D01*
X122963723Y-78516233D01*
X122944676Y-78497185D01*
X122906580Y-78478138D01*
X119028757Y-81848352D02*
X118895423Y-81657876D01*
X118800185Y-81848352D02*
X118800185Y-81448352D01*
X118952566Y-81448352D01*
X118990661Y-81467400D01*
X119009709Y-81486447D01*
X119028757Y-81524542D01*
X119028757Y-81581685D01*
X119009709Y-81619780D01*
X118990661Y-81638828D01*
X118952566Y-81657876D01*
X118800185Y-81657876D01*
X119371614Y-81581685D02*
X119371614Y-81848352D01*
X119276376Y-81429304D02*
X119181138Y-81715019D01*
X119428757Y-81715019D01*
X119657328Y-81448352D02*
X119695423Y-81448352D01*
X119733519Y-81467400D01*
X119752566Y-81486447D01*
X119771614Y-81524542D01*
X119790661Y-81600733D01*
X119790661Y-81695971D01*
X119771614Y-81772161D01*
X119752566Y-81810257D01*
X119733519Y-81829304D01*
X119695423Y-81848352D01*
X119657328Y-81848352D01*
X119619233Y-81829304D01*
X119600185Y-81810257D01*
X119581138Y-81772161D01*
X119562090Y-81695971D01*
X119562090Y-81600733D01*
X119581138Y-81524542D01*
X119600185Y-81486447D01*
X119619233Y-81467400D01*
X119657328Y-81448352D01*
X136408757Y-75898352D02*
X136275423Y-75707876D01*
X136180185Y-75898352D02*
X136180185Y-75498352D01*
X136332566Y-75498352D01*
X136370661Y-75517400D01*
X136389709Y-75536447D01*
X136408757Y-75574542D01*
X136408757Y-75631685D01*
X136389709Y-75669780D01*
X136370661Y-75688828D01*
X136332566Y-75707876D01*
X136180185Y-75707876D01*
X136751614Y-75631685D02*
X136751614Y-75898352D01*
X136656376Y-75479304D02*
X136561138Y-75765019D01*
X136808757Y-75765019D01*
X137170661Y-75898352D02*
X136942090Y-75898352D01*
X137056376Y-75898352D02*
X137056376Y-75498352D01*
X137018280Y-75555495D01*
X136980185Y-75593590D01*
X136942090Y-75612638D01*
X129841757Y-94983152D02*
X129708423Y-94792676D01*
X129613185Y-94983152D02*
X129613185Y-94583152D01*
X129765566Y-94583152D01*
X129803661Y-94602200D01*
X129822709Y-94621247D01*
X129841757Y-94659342D01*
X129841757Y-94716485D01*
X129822709Y-94754580D01*
X129803661Y-94773628D01*
X129765566Y-94792676D01*
X129613185Y-94792676D01*
X129975090Y-94583152D02*
X130222709Y-94583152D01*
X130089376Y-94735533D01*
X130146519Y-94735533D01*
X130184614Y-94754580D01*
X130203661Y-94773628D01*
X130222709Y-94811723D01*
X130222709Y-94906961D01*
X130203661Y-94945057D01*
X130184614Y-94964104D01*
X130146519Y-94983152D01*
X130032233Y-94983152D01*
X129994138Y-94964104D01*
X129975090Y-94945057D01*
X130603661Y-94983152D02*
X130375090Y-94983152D01*
X130489376Y-94983152D02*
X130489376Y-94583152D01*
X130451280Y-94640295D01*
X130413185Y-94678390D01*
X130375090Y-94697438D01*
X124189233Y-96520257D02*
X124170185Y-96539304D01*
X124113042Y-96558352D01*
X124074947Y-96558352D01*
X124017804Y-96539304D01*
X123979709Y-96501209D01*
X123960661Y-96463114D01*
X123941614Y-96386923D01*
X123941614Y-96329780D01*
X123960661Y-96253590D01*
X123979709Y-96215495D01*
X124017804Y-96177400D01*
X124074947Y-96158352D01*
X124113042Y-96158352D01*
X124170185Y-96177400D01*
X124189233Y-96196447D01*
X124532090Y-96291685D02*
X124532090Y-96558352D01*
X124436852Y-96139304D02*
X124341614Y-96425019D01*
X124589233Y-96425019D01*
X128298757Y-94777757D02*
X128279709Y-94796804D01*
X128222566Y-94815852D01*
X128184471Y-94815852D01*
X128127328Y-94796804D01*
X128089233Y-94758709D01*
X128070185Y-94720614D01*
X128051138Y-94644423D01*
X128051138Y-94587280D01*
X128070185Y-94511090D01*
X128089233Y-94472995D01*
X128127328Y-94434900D01*
X128184471Y-94415852D01*
X128222566Y-94415852D01*
X128279709Y-94434900D01*
X128298757Y-94453947D01*
X128451138Y-94453947D02*
X128470185Y-94434900D01*
X128508280Y-94415852D01*
X128603519Y-94415852D01*
X128641614Y-94434900D01*
X128660661Y-94453947D01*
X128679709Y-94492042D01*
X128679709Y-94530138D01*
X128660661Y-94587280D01*
X128432090Y-94815852D01*
X128679709Y-94815852D01*
X128908280Y-94587280D02*
X128870185Y-94568233D01*
X128851138Y-94549185D01*
X128832090Y-94511090D01*
X128832090Y-94492042D01*
X128851138Y-94453947D01*
X128870185Y-94434900D01*
X128908280Y-94415852D01*
X128984471Y-94415852D01*
X129022566Y-94434900D01*
X129041614Y-94453947D01*
X129060661Y-94492042D01*
X129060661Y-94511090D01*
X129041614Y-94549185D01*
X129022566Y-94568233D01*
X128984471Y-94587280D01*
X128908280Y-94587280D01*
X128870185Y-94606328D01*
X128851138Y-94625376D01*
X128832090Y-94663471D01*
X128832090Y-94739661D01*
X128851138Y-94777757D01*
X128870185Y-94796804D01*
X128908280Y-94815852D01*
X128984471Y-94815852D01*
X129022566Y-94796804D01*
X129041614Y-94777757D01*
X129060661Y-94739661D01*
X129060661Y-94663471D01*
X129041614Y-94625376D01*
X129022566Y-94606328D01*
X128984471Y-94587280D01*
X118738857Y-62195057D02*
X118719809Y-62214104D01*
X118662666Y-62233152D01*
X118624571Y-62233152D01*
X118567428Y-62214104D01*
X118529333Y-62176009D01*
X118510285Y-62137914D01*
X118491238Y-62061723D01*
X118491238Y-62004580D01*
X118510285Y-61928390D01*
X118529333Y-61890295D01*
X118567428Y-61852200D01*
X118624571Y-61833152D01*
X118662666Y-61833152D01*
X118719809Y-61852200D01*
X118738857Y-61871247D01*
X119119809Y-62233152D02*
X118891238Y-62233152D01*
X119005523Y-62233152D02*
X119005523Y-61833152D01*
X118967428Y-61890295D01*
X118929333Y-61928390D01*
X118891238Y-61947438D01*
X119272190Y-61871247D02*
X119291238Y-61852200D01*
X119329333Y-61833152D01*
X119424571Y-61833152D01*
X119462666Y-61852200D01*
X119481714Y-61871247D01*
X119500761Y-61909342D01*
X119500761Y-61947438D01*
X119481714Y-62004580D01*
X119253142Y-62233152D01*
X119500761Y-62233152D01*
X127599233Y-83820257D02*
X127580185Y-83839304D01*
X127523042Y-83858352D01*
X127484947Y-83858352D01*
X127427804Y-83839304D01*
X127389709Y-83801209D01*
X127370661Y-83763114D01*
X127351614Y-83686923D01*
X127351614Y-83629780D01*
X127370661Y-83553590D01*
X127389709Y-83515495D01*
X127427804Y-83477400D01*
X127484947Y-83458352D01*
X127523042Y-83458352D01*
X127580185Y-83477400D01*
X127599233Y-83496447D01*
X127942090Y-83458352D02*
X127865900Y-83458352D01*
X127827804Y-83477400D01*
X127808757Y-83496447D01*
X127770661Y-83553590D01*
X127751614Y-83629780D01*
X127751614Y-83782161D01*
X127770661Y-83820257D01*
X127789709Y-83839304D01*
X127827804Y-83858352D01*
X127903995Y-83858352D01*
X127942090Y-83839304D01*
X127961138Y-83820257D01*
X127980185Y-83782161D01*
X127980185Y-83686923D01*
X127961138Y-83648828D01*
X127942090Y-83629780D01*
X127903995Y-83610733D01*
X127827804Y-83610733D01*
X127789709Y-83629780D01*
X127770661Y-83648828D01*
X127751614Y-83686923D01*
X123398757Y-95620257D02*
X123379709Y-95639304D01*
X123322566Y-95658352D01*
X123284471Y-95658352D01*
X123227328Y-95639304D01*
X123189233Y-95601209D01*
X123170185Y-95563114D01*
X123151138Y-95486923D01*
X123151138Y-95429780D01*
X123170185Y-95353590D01*
X123189233Y-95315495D01*
X123227328Y-95277400D01*
X123284471Y-95258352D01*
X123322566Y-95258352D01*
X123379709Y-95277400D01*
X123398757Y-95296447D01*
X123551138Y-95296447D02*
X123570185Y-95277400D01*
X123608280Y-95258352D01*
X123703519Y-95258352D01*
X123741614Y-95277400D01*
X123760661Y-95296447D01*
X123779709Y-95334542D01*
X123779709Y-95372638D01*
X123760661Y-95429780D01*
X123532090Y-95658352D01*
X123779709Y-95658352D01*
X123970185Y-95658352D02*
X124046376Y-95658352D01*
X124084471Y-95639304D01*
X124103519Y-95620257D01*
X124141614Y-95563114D01*
X124160661Y-95486923D01*
X124160661Y-95334542D01*
X124141614Y-95296447D01*
X124122566Y-95277400D01*
X124084471Y-95258352D01*
X124008280Y-95258352D01*
X123970185Y-95277400D01*
X123951138Y-95296447D01*
X123932090Y-95334542D01*
X123932090Y-95429780D01*
X123951138Y-95467876D01*
X123970185Y-95486923D01*
X124008280Y-95505971D01*
X124084471Y-95505971D01*
X124122566Y-95486923D01*
X124141614Y-95467876D01*
X124160661Y-95429780D01*
X119029333Y-68215057D02*
X119010285Y-68234104D01*
X118953142Y-68253152D01*
X118915047Y-68253152D01*
X118857904Y-68234104D01*
X118819809Y-68196009D01*
X118800761Y-68157914D01*
X118781714Y-68081723D01*
X118781714Y-68024580D01*
X118800761Y-67948390D01*
X118819809Y-67910295D01*
X118857904Y-67872200D01*
X118915047Y-67853152D01*
X118953142Y-67853152D01*
X119010285Y-67872200D01*
X119029333Y-67891247D01*
X119219809Y-68253152D02*
X119296000Y-68253152D01*
X119334095Y-68234104D01*
X119353142Y-68215057D01*
X119391238Y-68157914D01*
X119410285Y-68081723D01*
X119410285Y-67929342D01*
X119391238Y-67891247D01*
X119372190Y-67872200D01*
X119334095Y-67853152D01*
X119257904Y-67853152D01*
X119219809Y-67872200D01*
X119200761Y-67891247D01*
X119181714Y-67929342D01*
X119181714Y-68024580D01*
X119200761Y-68062676D01*
X119219809Y-68081723D01*
X119257904Y-68100771D01*
X119334095Y-68100771D01*
X119372190Y-68081723D01*
X119391238Y-68062676D01*
X119410285Y-68024580D01*
X118748857Y-66245057D02*
X118729809Y-66264104D01*
X118672666Y-66283152D01*
X118634571Y-66283152D01*
X118577428Y-66264104D01*
X118539333Y-66226009D01*
X118520285Y-66187914D01*
X118501238Y-66111723D01*
X118501238Y-66054580D01*
X118520285Y-65978390D01*
X118539333Y-65940295D01*
X118577428Y-65902200D01*
X118634571Y-65883152D01*
X118672666Y-65883152D01*
X118729809Y-65902200D01*
X118748857Y-65921247D01*
X119129809Y-66283152D02*
X118901238Y-66283152D01*
X119015523Y-66283152D02*
X119015523Y-65883152D01*
X118977428Y-65940295D01*
X118939333Y-65978390D01*
X118901238Y-65997438D01*
X119377428Y-65883152D02*
X119415523Y-65883152D01*
X119453619Y-65902200D01*
X119472666Y-65921247D01*
X119491714Y-65959342D01*
X119510761Y-66035533D01*
X119510761Y-66130771D01*
X119491714Y-66206961D01*
X119472666Y-66245057D01*
X119453619Y-66264104D01*
X119415523Y-66283152D01*
X119377428Y-66283152D01*
X119339333Y-66264104D01*
X119320285Y-66245057D01*
X119301238Y-66206961D01*
X119282190Y-66130771D01*
X119282190Y-66035533D01*
X119301238Y-65959342D01*
X119320285Y-65921247D01*
X119339333Y-65902200D01*
X119377428Y-65883152D01*
X118778857Y-64185057D02*
X118759809Y-64204104D01*
X118702666Y-64223152D01*
X118664571Y-64223152D01*
X118607428Y-64204104D01*
X118569333Y-64166009D01*
X118550285Y-64127914D01*
X118531238Y-64051723D01*
X118531238Y-63994580D01*
X118550285Y-63918390D01*
X118569333Y-63880295D01*
X118607428Y-63842200D01*
X118664571Y-63823152D01*
X118702666Y-63823152D01*
X118759809Y-63842200D01*
X118778857Y-63861247D01*
X119159809Y-64223152D02*
X118931238Y-64223152D01*
X119045523Y-64223152D02*
X119045523Y-63823152D01*
X119007428Y-63880295D01*
X118969333Y-63918390D01*
X118931238Y-63937438D01*
X119540761Y-64223152D02*
X119312190Y-64223152D01*
X119426476Y-64223152D02*
X119426476Y-63823152D01*
X119388380Y-63880295D01*
X119350285Y-63918390D01*
X119312190Y-63937438D01*
X127698757Y-61230257D02*
X127679709Y-61249304D01*
X127622566Y-61268352D01*
X127584471Y-61268352D01*
X127527328Y-61249304D01*
X127489233Y-61211209D01*
X127470185Y-61173114D01*
X127451138Y-61096923D01*
X127451138Y-61039780D01*
X127470185Y-60963590D01*
X127489233Y-60925495D01*
X127527328Y-60887400D01*
X127584471Y-60868352D01*
X127622566Y-60868352D01*
X127679709Y-60887400D01*
X127698757Y-60906447D01*
X128079709Y-61268352D02*
X127851138Y-61268352D01*
X127965423Y-61268352D02*
X127965423Y-60868352D01*
X127927328Y-60925495D01*
X127889233Y-60963590D01*
X127851138Y-60982638D01*
X128270185Y-61268352D02*
X128346376Y-61268352D01*
X128384471Y-61249304D01*
X128403519Y-61230257D01*
X128441614Y-61173114D01*
X128460661Y-61096923D01*
X128460661Y-60944542D01*
X128441614Y-60906447D01*
X128422566Y-60887400D01*
X128384471Y-60868352D01*
X128308280Y-60868352D01*
X128270185Y-60887400D01*
X128251138Y-60906447D01*
X128232090Y-60944542D01*
X128232090Y-61039780D01*
X128251138Y-61077876D01*
X128270185Y-61096923D01*
X128308280Y-61115971D01*
X128384471Y-61115971D01*
X128422566Y-61096923D01*
X128441614Y-61077876D01*
X128460661Y-61039780D01*
X122058757Y-69430257D02*
X122039709Y-69449304D01*
X121982566Y-69468352D01*
X121944471Y-69468352D01*
X121887328Y-69449304D01*
X121849233Y-69411209D01*
X121830185Y-69373114D01*
X121811138Y-69296923D01*
X121811138Y-69239780D01*
X121830185Y-69163590D01*
X121849233Y-69125495D01*
X121887328Y-69087400D01*
X121944471Y-69068352D01*
X121982566Y-69068352D01*
X122039709Y-69087400D01*
X122058757Y-69106447D01*
X122439709Y-69468352D02*
X122211138Y-69468352D01*
X122325423Y-69468352D02*
X122325423Y-69068352D01*
X122287328Y-69125495D01*
X122249233Y-69163590D01*
X122211138Y-69182638D01*
X122668280Y-69239780D02*
X122630185Y-69220733D01*
X122611138Y-69201685D01*
X122592090Y-69163590D01*
X122592090Y-69144542D01*
X122611138Y-69106447D01*
X122630185Y-69087400D01*
X122668280Y-69068352D01*
X122744471Y-69068352D01*
X122782566Y-69087400D01*
X122801614Y-69106447D01*
X122820661Y-69144542D01*
X122820661Y-69163590D01*
X122801614Y-69201685D01*
X122782566Y-69220733D01*
X122744471Y-69239780D01*
X122668280Y-69239780D01*
X122630185Y-69258828D01*
X122611138Y-69277876D01*
X122592090Y-69315971D01*
X122592090Y-69392161D01*
X122611138Y-69430257D01*
X122630185Y-69449304D01*
X122668280Y-69468352D01*
X122744471Y-69468352D01*
X122782566Y-69449304D01*
X122801614Y-69430257D01*
X122820661Y-69392161D01*
X122820661Y-69315971D01*
X122801614Y-69277876D01*
X122782566Y-69258828D01*
X122744471Y-69239780D01*
X118748857Y-63225057D02*
X118729809Y-63244104D01*
X118672666Y-63263152D01*
X118634571Y-63263152D01*
X118577428Y-63244104D01*
X118539333Y-63206009D01*
X118520285Y-63167914D01*
X118501238Y-63091723D01*
X118501238Y-63034580D01*
X118520285Y-62958390D01*
X118539333Y-62920295D01*
X118577428Y-62882200D01*
X118634571Y-62863152D01*
X118672666Y-62863152D01*
X118729809Y-62882200D01*
X118748857Y-62901247D01*
X119129809Y-63263152D02*
X118901238Y-63263152D01*
X119015523Y-63263152D02*
X119015523Y-62863152D01*
X118977428Y-62920295D01*
X118939333Y-62958390D01*
X118901238Y-62977438D01*
X119472666Y-62863152D02*
X119396476Y-62863152D01*
X119358380Y-62882200D01*
X119339333Y-62901247D01*
X119301238Y-62958390D01*
X119282190Y-63034580D01*
X119282190Y-63186961D01*
X119301238Y-63225057D01*
X119320285Y-63244104D01*
X119358380Y-63263152D01*
X119434571Y-63263152D01*
X119472666Y-63244104D01*
X119491714Y-63225057D01*
X119510761Y-63186961D01*
X119510761Y-63091723D01*
X119491714Y-63053628D01*
X119472666Y-63034580D01*
X119434571Y-63015533D01*
X119358380Y-63015533D01*
X119320285Y-63034580D01*
X119301238Y-63053628D01*
X119282190Y-63091723D01*
X118758857Y-65235057D02*
X118739809Y-65254104D01*
X118682666Y-65273152D01*
X118644571Y-65273152D01*
X118587428Y-65254104D01*
X118549333Y-65216009D01*
X118530285Y-65177914D01*
X118511238Y-65101723D01*
X118511238Y-65044580D01*
X118530285Y-64968390D01*
X118549333Y-64930295D01*
X118587428Y-64892200D01*
X118644571Y-64873152D01*
X118682666Y-64873152D01*
X118739809Y-64892200D01*
X118758857Y-64911247D01*
X119139809Y-65273152D02*
X118911238Y-65273152D01*
X119025523Y-65273152D02*
X119025523Y-64873152D01*
X118987428Y-64930295D01*
X118949333Y-64968390D01*
X118911238Y-64987438D01*
X119501714Y-64873152D02*
X119311238Y-64873152D01*
X119292190Y-65063628D01*
X119311238Y-65044580D01*
X119349333Y-65025533D01*
X119444571Y-65025533D01*
X119482666Y-65044580D01*
X119501714Y-65063628D01*
X119520761Y-65101723D01*
X119520761Y-65196961D01*
X119501714Y-65235057D01*
X119482666Y-65254104D01*
X119444571Y-65273152D01*
X119349333Y-65273152D01*
X119311238Y-65254104D01*
X119292190Y-65235057D01*
X118738857Y-67255057D02*
X118719809Y-67274104D01*
X118662666Y-67293152D01*
X118624571Y-67293152D01*
X118567428Y-67274104D01*
X118529333Y-67236009D01*
X118510285Y-67197914D01*
X118491238Y-67121723D01*
X118491238Y-67064580D01*
X118510285Y-66988390D01*
X118529333Y-66950295D01*
X118567428Y-66912200D01*
X118624571Y-66893152D01*
X118662666Y-66893152D01*
X118719809Y-66912200D01*
X118738857Y-66931247D01*
X119119809Y-67293152D02*
X118891238Y-67293152D01*
X119005523Y-67293152D02*
X119005523Y-66893152D01*
X118967428Y-66950295D01*
X118929333Y-66988390D01*
X118891238Y-67007438D01*
X119462666Y-67026485D02*
X119462666Y-67293152D01*
X119367428Y-66874104D02*
X119272190Y-67159819D01*
X119519809Y-67159819D01*
X118728857Y-69255057D02*
X118709809Y-69274104D01*
X118652666Y-69293152D01*
X118614571Y-69293152D01*
X118557428Y-69274104D01*
X118519333Y-69236009D01*
X118500285Y-69197914D01*
X118481238Y-69121723D01*
X118481238Y-69064580D01*
X118500285Y-68988390D01*
X118519333Y-68950295D01*
X118557428Y-68912200D01*
X118614571Y-68893152D01*
X118652666Y-68893152D01*
X118709809Y-68912200D01*
X118728857Y-68931247D01*
X119109809Y-69293152D02*
X118881238Y-69293152D01*
X118995523Y-69293152D02*
X118995523Y-68893152D01*
X118957428Y-68950295D01*
X118919333Y-68988390D01*
X118881238Y-69007438D01*
X119243142Y-68893152D02*
X119490761Y-68893152D01*
X119357428Y-69045533D01*
X119414571Y-69045533D01*
X119452666Y-69064580D01*
X119471714Y-69083628D01*
X119490761Y-69121723D01*
X119490761Y-69216961D01*
X119471714Y-69255057D01*
X119452666Y-69274104D01*
X119414571Y-69293152D01*
X119300285Y-69293152D01*
X119262190Y-69274104D01*
X119243142Y-69255057D01*
X119479233Y-76358352D02*
X119345900Y-76167876D01*
X119250661Y-76358352D02*
X119250661Y-75958352D01*
X119403042Y-75958352D01*
X119441138Y-75977400D01*
X119460185Y-75996447D01*
X119479233Y-76034542D01*
X119479233Y-76091685D01*
X119460185Y-76129780D01*
X119441138Y-76148828D01*
X119403042Y-76167876D01*
X119250661Y-76167876D01*
X119841138Y-75958352D02*
X119650661Y-75958352D01*
X119631614Y-76148828D01*
X119650661Y-76129780D01*
X119688757Y-76110733D01*
X119783995Y-76110733D01*
X119822090Y-76129780D01*
X119841138Y-76148828D01*
X119860185Y-76186923D01*
X119860185Y-76282161D01*
X119841138Y-76320257D01*
X119822090Y-76339304D01*
X119783995Y-76358352D01*
X119688757Y-76358352D01*
X119650661Y-76339304D01*
X119631614Y-76320257D01*
X119419233Y-77788352D02*
X119285900Y-77597876D01*
X119190661Y-77788352D02*
X119190661Y-77388352D01*
X119343042Y-77388352D01*
X119381138Y-77407400D01*
X119400185Y-77426447D01*
X119419233Y-77464542D01*
X119419233Y-77521685D01*
X119400185Y-77559780D01*
X119381138Y-77578828D01*
X119343042Y-77597876D01*
X119190661Y-77597876D01*
X119762090Y-77388352D02*
X119685900Y-77388352D01*
X119647804Y-77407400D01*
X119628757Y-77426447D01*
X119590661Y-77483590D01*
X119571614Y-77559780D01*
X119571614Y-77712161D01*
X119590661Y-77750257D01*
X119609709Y-77769304D01*
X119647804Y-77788352D01*
X119723995Y-77788352D01*
X119762090Y-77769304D01*
X119781138Y-77750257D01*
X119800185Y-77712161D01*
X119800185Y-77616923D01*
X119781138Y-77578828D01*
X119762090Y-77559780D01*
X119723995Y-77540733D01*
X119647804Y-77540733D01*
X119609709Y-77559780D01*
X119590661Y-77578828D01*
X119571614Y-77616923D01*
X120289233Y-73058352D02*
X120155900Y-72867876D01*
X120060661Y-73058352D02*
X120060661Y-72658352D01*
X120213042Y-72658352D01*
X120251138Y-72677400D01*
X120270185Y-72696447D01*
X120289233Y-72734542D01*
X120289233Y-72791685D01*
X120270185Y-72829780D01*
X120251138Y-72848828D01*
X120213042Y-72867876D01*
X120060661Y-72867876D01*
X120479709Y-73058352D02*
X120555900Y-73058352D01*
X120593995Y-73039304D01*
X120613042Y-73020257D01*
X120651138Y-72963114D01*
X120670185Y-72886923D01*
X120670185Y-72734542D01*
X120651138Y-72696447D01*
X120632090Y-72677400D01*
X120593995Y-72658352D01*
X120517804Y-72658352D01*
X120479709Y-72677400D01*
X120460661Y-72696447D01*
X120441614Y-72734542D01*
X120441614Y-72829780D01*
X120460661Y-72867876D01*
X120479709Y-72886923D01*
X120517804Y-72905971D01*
X120593995Y-72905971D01*
X120632090Y-72886923D01*
X120651138Y-72867876D01*
X120670185Y-72829780D01*
X120398757Y-73858352D02*
X120265423Y-73667876D01*
X120170185Y-73858352D02*
X120170185Y-73458352D01*
X120322566Y-73458352D01*
X120360661Y-73477400D01*
X120379709Y-73496447D01*
X120398757Y-73534542D01*
X120398757Y-73591685D01*
X120379709Y-73629780D01*
X120360661Y-73648828D01*
X120322566Y-73667876D01*
X120170185Y-73667876D01*
X120779709Y-73858352D02*
X120551138Y-73858352D01*
X120665423Y-73858352D02*
X120665423Y-73458352D01*
X120627328Y-73515495D01*
X120589233Y-73553590D01*
X120551138Y-73572638D01*
X121027328Y-73458352D02*
X121065423Y-73458352D01*
X121103519Y-73477400D01*
X121122566Y-73496447D01*
X121141614Y-73534542D01*
X121160661Y-73610733D01*
X121160661Y-73705971D01*
X121141614Y-73782161D01*
X121122566Y-73820257D01*
X121103519Y-73839304D01*
X121065423Y-73858352D01*
X121027328Y-73858352D01*
X120989233Y-73839304D01*
X120970185Y-73820257D01*
X120951138Y-73782161D01*
X120932090Y-73705971D01*
X120932090Y-73610733D01*
X120951138Y-73534542D01*
X120970185Y-73496447D01*
X120989233Y-73477400D01*
X121027328Y-73458352D01*
X129356852Y-70664542D02*
X129166376Y-70797876D01*
X129356852Y-70893114D02*
X128956852Y-70893114D01*
X128956852Y-70740733D01*
X128975900Y-70702638D01*
X128994947Y-70683590D01*
X129033042Y-70664542D01*
X129090185Y-70664542D01*
X129128280Y-70683590D01*
X129147328Y-70702638D01*
X129166376Y-70740733D01*
X129166376Y-70893114D01*
X129356852Y-70283590D02*
X129356852Y-70512161D01*
X129356852Y-70397876D02*
X128956852Y-70397876D01*
X129013995Y-70435971D01*
X129052090Y-70474066D01*
X129071138Y-70512161D01*
X128956852Y-70150257D02*
X128956852Y-69902638D01*
X129109233Y-70035971D01*
X129109233Y-69978828D01*
X129128280Y-69940733D01*
X129147328Y-69921685D01*
X129185423Y-69902638D01*
X129280661Y-69902638D01*
X129318757Y-69921685D01*
X129337804Y-69940733D01*
X129356852Y-69978828D01*
X129356852Y-70093114D01*
X129337804Y-70131209D01*
X129318757Y-70150257D01*
X135029233Y-77578352D02*
X134895900Y-77387876D01*
X134800661Y-77578352D02*
X134800661Y-77178352D01*
X134953042Y-77178352D01*
X134991138Y-77197400D01*
X135010185Y-77216447D01*
X135029233Y-77254542D01*
X135029233Y-77311685D01*
X135010185Y-77349780D01*
X134991138Y-77368828D01*
X134953042Y-77387876D01*
X134800661Y-77387876D01*
X135372090Y-77311685D02*
X135372090Y-77578352D01*
X135276852Y-77159304D02*
X135181614Y-77445019D01*
X135429233Y-77445019D01*
X132126752Y-84434366D02*
X131936276Y-84567700D01*
X132126752Y-84662938D02*
X131726752Y-84662938D01*
X131726752Y-84510557D01*
X131745800Y-84472461D01*
X131764847Y-84453414D01*
X131802942Y-84434366D01*
X131860085Y-84434366D01*
X131898180Y-84453414D01*
X131917228Y-84472461D01*
X131936276Y-84510557D01*
X131936276Y-84662938D01*
X131764847Y-84281985D02*
X131745800Y-84262938D01*
X131726752Y-84224842D01*
X131726752Y-84129604D01*
X131745800Y-84091509D01*
X131764847Y-84072461D01*
X131802942Y-84053414D01*
X131841038Y-84053414D01*
X131898180Y-84072461D01*
X132126752Y-84301033D01*
X132126752Y-84053414D01*
X131110752Y-84434366D02*
X130920276Y-84567700D01*
X131110752Y-84662938D02*
X130710752Y-84662938D01*
X130710752Y-84510557D01*
X130729800Y-84472461D01*
X130748847Y-84453414D01*
X130786942Y-84434366D01*
X130844085Y-84434366D01*
X130882180Y-84453414D01*
X130901228Y-84472461D01*
X130920276Y-84510557D01*
X130920276Y-84662938D01*
X131110752Y-84053414D02*
X131110752Y-84281985D01*
X131110752Y-84167700D02*
X130710752Y-84167700D01*
X130767895Y-84205795D01*
X130805990Y-84243890D01*
X130825038Y-84281985D01*
X119128757Y-79008352D02*
X118995423Y-78817876D01*
X118900185Y-79008352D02*
X118900185Y-78608352D01*
X119052566Y-78608352D01*
X119090661Y-78627400D01*
X119109709Y-78646447D01*
X119128757Y-78684542D01*
X119128757Y-78741685D01*
X119109709Y-78779780D01*
X119090661Y-78798828D01*
X119052566Y-78817876D01*
X118900185Y-78817876D01*
X119509709Y-79008352D02*
X119281138Y-79008352D01*
X119395423Y-79008352D02*
X119395423Y-78608352D01*
X119357328Y-78665495D01*
X119319233Y-78703590D01*
X119281138Y-78722638D01*
X119852566Y-78741685D02*
X119852566Y-79008352D01*
X119757328Y-78589304D02*
X119662090Y-78875019D01*
X119909709Y-78875019D01*
X119048757Y-80308352D02*
X118915423Y-80117876D01*
X118820185Y-80308352D02*
X118820185Y-79908352D01*
X118972566Y-79908352D01*
X119010661Y-79927400D01*
X119029709Y-79946447D01*
X119048757Y-79984542D01*
X119048757Y-80041685D01*
X119029709Y-80079780D01*
X119010661Y-80098828D01*
X118972566Y-80117876D01*
X118820185Y-80117876D01*
X119429709Y-80308352D02*
X119201138Y-80308352D01*
X119315423Y-80308352D02*
X119315423Y-79908352D01*
X119277328Y-79965495D01*
X119239233Y-80003590D01*
X119201138Y-80022638D01*
X119791614Y-79908352D02*
X119601138Y-79908352D01*
X119582090Y-80098828D01*
X119601138Y-80079780D01*
X119639233Y-80060733D01*
X119734471Y-80060733D01*
X119772566Y-80079780D01*
X119791614Y-80098828D01*
X119810661Y-80136923D01*
X119810661Y-80232161D01*
X119791614Y-80270257D01*
X119772566Y-80289304D01*
X119734471Y-80308352D01*
X119639233Y-80308352D01*
X119601138Y-80289304D01*
X119582090Y-80270257D01*
X121058757Y-82592852D02*
X120925423Y-82402376D01*
X120830185Y-82592852D02*
X120830185Y-82192852D01*
X120982566Y-82192852D01*
X121020661Y-82211900D01*
X121039709Y-82230947D01*
X121058757Y-82269042D01*
X121058757Y-82326185D01*
X121039709Y-82364280D01*
X121020661Y-82383328D01*
X120982566Y-82402376D01*
X120830185Y-82402376D01*
X121439709Y-82592852D02*
X121211138Y-82592852D01*
X121325423Y-82592852D02*
X121325423Y-82192852D01*
X121287328Y-82249995D01*
X121249233Y-82288090D01*
X121211138Y-82307138D01*
X121782566Y-82192852D02*
X121706376Y-82192852D01*
X121668280Y-82211900D01*
X121649233Y-82230947D01*
X121611138Y-82288090D01*
X121592090Y-82364280D01*
X121592090Y-82516661D01*
X121611138Y-82554757D01*
X121630185Y-82573804D01*
X121668280Y-82592852D01*
X121744471Y-82592852D01*
X121782566Y-82573804D01*
X121801614Y-82554757D01*
X121820661Y-82516661D01*
X121820661Y-82421423D01*
X121801614Y-82383328D01*
X121782566Y-82364280D01*
X121744471Y-82345233D01*
X121668280Y-82345233D01*
X121630185Y-82364280D01*
X121611138Y-82383328D01*
X121592090Y-82421423D01*
X122665252Y-84154942D02*
X122474776Y-84288276D01*
X122665252Y-84383514D02*
X122265252Y-84383514D01*
X122265252Y-84231133D01*
X122284300Y-84193038D01*
X122303347Y-84173990D01*
X122341442Y-84154942D01*
X122398585Y-84154942D01*
X122436680Y-84173990D01*
X122455728Y-84193038D01*
X122474776Y-84231133D01*
X122474776Y-84383514D01*
X122665252Y-83773990D02*
X122665252Y-84002561D01*
X122665252Y-83888276D02*
X122265252Y-83888276D01*
X122322395Y-83926371D01*
X122360490Y-83964466D01*
X122379538Y-84002561D01*
X122265252Y-83640657D02*
X122265252Y-83373990D01*
X122665252Y-83545419D01*
X135058757Y-78278352D02*
X134925423Y-78087876D01*
X134830185Y-78278352D02*
X134830185Y-77878352D01*
X134982566Y-77878352D01*
X135020661Y-77897400D01*
X135039709Y-77916447D01*
X135058757Y-77954542D01*
X135058757Y-78011685D01*
X135039709Y-78049780D01*
X135020661Y-78068828D01*
X134982566Y-78087876D01*
X134830185Y-78087876D01*
X135439709Y-78278352D02*
X135211138Y-78278352D01*
X135325423Y-78278352D02*
X135325423Y-77878352D01*
X135287328Y-77935495D01*
X135249233Y-77973590D01*
X135211138Y-77992638D01*
X135668280Y-78049780D02*
X135630185Y-78030733D01*
X135611138Y-78011685D01*
X135592090Y-77973590D01*
X135592090Y-77954542D01*
X135611138Y-77916447D01*
X135630185Y-77897400D01*
X135668280Y-77878352D01*
X135744471Y-77878352D01*
X135782566Y-77897400D01*
X135801614Y-77916447D01*
X135820661Y-77954542D01*
X135820661Y-77973590D01*
X135801614Y-78011685D01*
X135782566Y-78030733D01*
X135744471Y-78049780D01*
X135668280Y-78049780D01*
X135630185Y-78068828D01*
X135611138Y-78087876D01*
X135592090Y-78125971D01*
X135592090Y-78202161D01*
X135611138Y-78240257D01*
X135630185Y-78259304D01*
X135668280Y-78278352D01*
X135744471Y-78278352D01*
X135782566Y-78259304D01*
X135801614Y-78240257D01*
X135820661Y-78202161D01*
X135820661Y-78125971D01*
X135801614Y-78087876D01*
X135782566Y-78068828D01*
X135744471Y-78049780D01*
X125546852Y-61754542D02*
X125356376Y-61887876D01*
X125546852Y-61983114D02*
X125146852Y-61983114D01*
X125146852Y-61830733D01*
X125165900Y-61792638D01*
X125184947Y-61773590D01*
X125223042Y-61754542D01*
X125280185Y-61754542D01*
X125318280Y-61773590D01*
X125337328Y-61792638D01*
X125356376Y-61830733D01*
X125356376Y-61983114D01*
X125546852Y-61373590D02*
X125546852Y-61602161D01*
X125546852Y-61487876D02*
X125146852Y-61487876D01*
X125203995Y-61525971D01*
X125242090Y-61564066D01*
X125261138Y-61602161D01*
X125546852Y-61183114D02*
X125546852Y-61106923D01*
X125527804Y-61068828D01*
X125508757Y-61049780D01*
X125451614Y-61011685D01*
X125375423Y-60992638D01*
X125223042Y-60992638D01*
X125184947Y-61011685D01*
X125165900Y-61030733D01*
X125146852Y-61068828D01*
X125146852Y-61145019D01*
X125165900Y-61183114D01*
X125184947Y-61202161D01*
X125223042Y-61221209D01*
X125318280Y-61221209D01*
X125356376Y-61202161D01*
X125375423Y-61183114D01*
X125394471Y-61145019D01*
X125394471Y-61068828D01*
X125375423Y-61030733D01*
X125356376Y-61011685D01*
X125318280Y-60992638D01*
X126389233Y-84120257D02*
X126370185Y-84139304D01*
X126313042Y-84158352D01*
X126274947Y-84158352D01*
X126217804Y-84139304D01*
X126179709Y-84101209D01*
X126160661Y-84063114D01*
X126141614Y-83986923D01*
X126141614Y-83929780D01*
X126160661Y-83853590D01*
X126179709Y-83815495D01*
X126217804Y-83777400D01*
X126274947Y-83758352D01*
X126313042Y-83758352D01*
X126370185Y-83777400D01*
X126389233Y-83796447D01*
X126770185Y-84158352D02*
X126541614Y-84158352D01*
X126655900Y-84158352D02*
X126655900Y-83758352D01*
X126617804Y-83815495D01*
X126579709Y-83853590D01*
X126541614Y-83872638D01*
X120946057Y-70728857D02*
X120927009Y-70747904D01*
X120869866Y-70766952D01*
X120831771Y-70766952D01*
X120774628Y-70747904D01*
X120736533Y-70709809D01*
X120717485Y-70671714D01*
X120698438Y-70595523D01*
X120698438Y-70538380D01*
X120717485Y-70462190D01*
X120736533Y-70424095D01*
X120774628Y-70386000D01*
X120831771Y-70366952D01*
X120869866Y-70366952D01*
X120927009Y-70386000D01*
X120946057Y-70405047D01*
X121327009Y-70766952D02*
X121098438Y-70766952D01*
X121212723Y-70766952D02*
X121212723Y-70366952D01*
X121174628Y-70424095D01*
X121136533Y-70462190D01*
X121098438Y-70481238D01*
X121460342Y-70366952D02*
X121727009Y-70366952D01*
X121555580Y-70766952D01*
X128705138Y-99512152D02*
X128705138Y-99835961D01*
X128724185Y-99874057D01*
X128743233Y-99893104D01*
X128781328Y-99912152D01*
X128857519Y-99912152D01*
X128895614Y-99893104D01*
X128914661Y-99874057D01*
X128933709Y-99835961D01*
X128933709Y-99512152D01*
X129295614Y-99645485D02*
X129295614Y-99912152D01*
X129200376Y-99493104D02*
X129105138Y-99778819D01*
X129352757Y-99778819D01*
X137149666Y-63526252D02*
X137149666Y-63811966D01*
X137130619Y-63869109D01*
X137092523Y-63907204D01*
X137035380Y-63926252D01*
X136997285Y-63926252D01*
X137549666Y-63926252D02*
X137321095Y-63926252D01*
X137435380Y-63926252D02*
X137435380Y-63526252D01*
X137397285Y-63583395D01*
X137359190Y-63621490D01*
X137321095Y-63640538D01*
M02*
