M48
; DRILL file {KiCad 5.1.4+dfsg1-1~bpo10+1} date Wed Jan  8 12:36:25 2020
; FORMAT={-:-/ absolute / metric / decimal}
; #@! TF.CreationDate,2020-01-08T12:36:25+01:00
; #@! TF.GenerationSoftware,Kicad,Pcbnew,5.1.4+dfsg1-1~bpo10+1
; #@! TF.FileFunction,Plated,1,4,PTH
FMAT,2
METRIC
T1C0.250
T2C0.450
T3C0.762
T4C0.900
T5C1.000
T6C2.000
%
G90
G05
T1
X110.621Y-74.5
X111.544Y-67.564
X112.106Y-87.957
X112.141Y-76.931
X112.141Y-78.201
X112.151Y-79.451
X112.151Y-80.721
X115.966Y-90.737
X116.446Y-82.157
X116.473Y-90.054
X116.483Y-86.847
X116.714Y-61.022
X117.032Y-88.867
X117.056Y-88.127
X117.066Y-85.036
X117.076Y-87.347
X117.266Y-79.467
X117.551Y-82.961
X117.583Y-86.789
X117.895Y-73.21
X117.931Y-87.57
X118.379Y-69.925
X118.412Y-87.007
X118.745Y-66.065
X118.745Y-67.069
X118.745Y-69.075
X118.758Y-68.072
X118.809Y-74.23
X118.871Y-83.392
X118.871Y-85.007
X119.186Y-88.057
X119.31Y-85.673
X119.396Y-88.823
X119.406Y-73.117
X119.495Y-63.092
X119.721Y-76.941
X119.751Y-78.191
X119.775Y-74.425
X119.775Y-75.386
X119.786Y-80.741
X119.893Y-91.452
X119.951Y-84.711
X119.976Y-86.307
X120.022Y-63.676
X120.256Y-92.097
X120.391Y-93.581
X120.727Y-83.057
X120.741Y-84.691
X120.764Y-64.046
X120.764Y-65.075
X120.981Y-73.112
X121.318Y-76.298
X121.366Y-93.468
X121.701Y-84.671
X121.718Y-71.309
X121.752Y-81.663
X121.901Y-80.721
X122.026Y-97.057
X122.036Y-99.397
X122.106Y-93.446
X122.311Y-77.841
X122.375Y-73.27
X122.38Y-85.622
X122.393Y-70.346
X122.456Y-84.66
X122.62Y-60.337
X122.706Y-93.961
X122.861Y-75.925
X122.874Y-71.398
X123.046Y-99.407
X123.086Y-97.057
X123.266Y-94.507
X123.426Y-92.461
X123.587Y-67.847
X123.668Y-61.127
X123.851Y-72.109
X124.245Y-62.952
X124.283Y-84.678
X124.286Y-85.418
X124.296Y-73.785
X124.306Y-96.747
X124.336Y-95.507
X124.41Y-72.655
X124.697Y-82.93
X124.851Y-91.551
X124.885Y-82.214
X124.994Y-70.356
X125.046Y-60.047
X125.103Y-75.535
X125.15Y-62.061
X125.201Y-74.701
X125.236Y-83.501
X125.246Y-69.327
X125.486Y-85.768
X125.641Y-76.866
X125.642Y-69.988
X125.842Y-75.508
X125.866Y-82.977
X125.947Y-92.658
X126.02Y-74.597
X126.226Y-84.339
X126.482Y-61.71
X126.582Y-75.53
X126.644Y-82.959
X126.682Y-71.463
X126.8Y-59.935
X127.014Y-77.041
X127.066Y-96.867
X127.137Y-62.084
X127.412Y-83.491
X127.457Y-69.538
X127.497Y-70.895
X127.641Y-80.082
X127.786Y-96.117
X127.846Y-59.935
X127.893Y-61.843
X127.986Y-76.217
X127.999Y-75.471
X128.322Y-83.374
X128.416Y-79.787
X128.466Y-84.347
X128.836Y-77.917
X128.921Y-61.411
X129.029Y-71.028
X129.071Y-69.163
X129.115Y-85.178
X129.13Y-86.698
X129.13Y-89.228
X129.13Y-90.768
X129.386Y-95.547
X129.756Y-63.167
X129.985Y-84.212
X130.006Y-93.112
X130.036Y-96.867
X130.141Y-69.337
X130.15Y-70.585
X130.156Y-74.427
X130.256Y-77.317
X130.42Y-75.882
X130.447Y-75.143
X130.498Y-76.618
X130.546Y-78.447
X130.555Y-79.187
X130.561Y-79.927
X130.577Y-67.882
X130.577Y-68.622
X130.59Y-63.173
X130.656Y-97.877
X130.866Y-94.142
X130.886Y-94.967
X130.938Y-84.212
X131.629Y-72.2
X131.75Y-73.469
X131.916Y-84.212
X132.596Y-98.337
X132.626Y-63.246
X132.656Y-73.777
X132.756Y-82.977
X132.794Y-80.388
X132.976Y-78.925
X132.982Y-71.183
X133.356Y-84.277
X133.364Y-81.825
X133.366Y-63.246
X133.617Y-67.752
X133.69Y-87.208
X133.72Y-91.298
X133.73Y-88.768
X133.756Y-72.977
X134.106Y-63.337
X134.37Y-74.592
X134.419Y-77.091
X134.57Y-76.224
X134.836Y-63.347
X134.989Y-80.491
X135.119Y-81.981
X135.187Y-68.418
X135.234Y-77.049
X135.323Y-74.682
X135.586Y-83.133
X135.623Y-69.317
X135.84Y-65.892
X135.86Y-67.462
X135.87Y-64.372
X136.056Y-77.98
X136.058Y-77.24
X136.156Y-74.577
X136.356Y-70.377
X136.366Y-73.777
X136.486Y-61.537
X136.544Y-93.162
X136.556Y-62.427
X136.59Y-65.892
X136.61Y-67.462
X136.62Y-64.372
X136.638Y-81.126
X137.056Y-61.627
X137.116Y-93.717
X137.136Y-92.647
X137.176Y-96.177
X137.276Y-60.447
X137.296Y-62.427
X137.356Y-83.755
X137.356Y-84.758
X137.64Y-66.252
X137.64Y-67.002
X137.641Y-63.252
X137.641Y-64.002
X137.641Y-64.752
X137.641Y-65.502
X137.641Y-67.762
X137.641Y-68.512
X137.816Y-60.467
X137.863Y-94.982
X137.896Y-98.947
X138.196Y-78.027
X139.356Y-78.517
X139.536Y-85.227
X139.646Y-73.727
X139.888Y-81.169
X140.929Y-78.743
X141.013Y-77.422
X141.016Y-81.017
X141.568Y-92.5
X141.686Y-95.507
X141.686Y-91.493
X141.696Y-94.507
X141.711Y-90.018
X141.716Y-68.152
X141.726Y-63.642
X141.726Y-66.642
X141.736Y-65.152
X141.736Y-88.518
X141.737Y-71.042
X141.743Y-69.632
X141.758Y-87.019
X142.256Y-78.417
X142.355Y-80.923
X143.426Y-76.987
X144.456Y-72.897
X145.556Y-77.177
X148.845Y-79.45
X121.63Y-88.068
X121.63Y-89.068
X121.63Y-90.068
X122.63Y-88.068
X122.63Y-89.068
X122.63Y-90.068
X123.63Y-88.068
X123.63Y-89.068
X123.63Y-90.068
X125.9Y-64.562
X125.9Y-65.562
X125.9Y-66.562
X126.9Y-64.562
X126.9Y-65.562
X126.9Y-66.562
X127.9Y-64.562
X127.9Y-65.562
X127.9Y-66.562
T2
X113.1Y-86.564
X113.1Y-87.564
X113.1Y-88.564
X113.1Y-89.564
X113.1Y-90.564
X113.1Y-91.564
X113.1Y-92.564
X113.1Y-93.564
X113.1Y-94.564
X114.9Y-86.064
X114.9Y-87.064
X114.9Y-88.064
X114.9Y-89.064
X114.9Y-90.064
X114.9Y-91.064
X114.9Y-92.064
X114.9Y-93.064
X114.9Y-94.064
X114.9Y-95.064
X113.1Y-63.196
X113.1Y-64.196
X113.1Y-65.196
X113.1Y-66.196
X113.1Y-67.196
X113.1Y-68.196
X113.1Y-69.196
X113.1Y-70.196
X113.1Y-71.196
X114.9Y-62.696
X114.9Y-63.696
X114.9Y-64.696
X114.9Y-65.696
X114.9Y-66.696
X114.9Y-67.696
X114.9Y-68.696
X114.9Y-69.696
X114.9Y-70.696
X114.9Y-71.696
T3
X134.836Y-98.167
X134.856Y-95.627
T6
X120.0Y-60.0
X120.0Y-98.5
X144.641Y-79.475
T4
G00X141.35Y-60.382
M15
G01X139.55Y-60.382
M16
G05
G00X141.35Y-74.882
M15
G01X139.55Y-74.882
M16
G05
G00X147.05Y-60.382
M15
G01X145.85Y-60.382
M16
G05
G00X147.05Y-74.882
M15
G01X145.85Y-74.882
M16
G05
G00X141.35Y-83.75
M15
G01X139.55Y-83.75
M16
G05
G00X141.35Y-98.25
M15
G01X139.55Y-98.25
M16
G05
G00X147.05Y-83.75
M15
G01X145.85Y-83.75
M16
G05
G00X147.05Y-98.25
M15
G01X145.85Y-98.25
M16
G05
T5
G00X112.55Y-83.814
M15
G01X115.45Y-83.814
M16
G05
G00X112.55Y-97.314
M15
G01X115.45Y-97.314
M16
G05
G00X112.55Y-60.446
M15
G01X115.45Y-60.446
M16
G05
G00X112.55Y-73.946
M15
G01X115.45Y-73.946
M16
G05
T0
M30
